<?xml version="1.0" encoding="UTF-8" standalone="no"?>
<svg id="svg4158" xmlns:rdf="http://www.w3.org/1999/02/22-rdf-syntax-ns#" xmlns="http://www.w3.org/2000/svg" height="971" viewBox="0 0 685 971" width="685" version="1.1" xmlns:cc="http://creativecommons.org/ns#" xmlns:dc="http://purl.org/dc/elements/1.1/">
<path id="path4172" d="m329.39 969.19c-5.4187-2.233-12.552-9.7144-14.75-15.469-4.3508-11.392-15.911-15.172-27.914-9.1259-7.9642 4.0114-23.639 14.144-27.843 18-17.27 15.836-47.552 0.58124-31.906-16.073l2.2634-2.4093-3.214-1.9545c-9.4753-5.7623-55.899-5.096-69.056 0.99106-9.2742 4.2906-13.385 4.1119-24.993-1.0868-13.955-6.2498-15.286-7.773-14.724-16.849 0.53215-8.589-0.15146-9.361-7.1113-8.0311-18.179 3.4737-46.311-1.6744-50.832-9.3022-5.8738-9.9094-5.0245-13.172 3.9124-15.032 13.269-2.7608 20.209-3.9714 28.279-4.9329 4.95-0.58975 11.7-1.7061 15-2.4808 3.3-0.77467 7.4051-1.4151 9.1224-1.4233 1.7173-0.008 6.4988-1.117 10.626-2.4641 4.1268-1.3471 10.372-3.1222 13.878-3.9447 5.6482-1.3251 15.201-5.2473 21.576-8.8588 69.842-39.568 82.107-68.52 42.583-100.52-5.25-4.24-12.39-9.52-15.86-11.72-8.26-5.24-19.23-12.69-27.93-18.99-3.85-2.7848-9.925-6.8241-13.5-8.9764-3.575-2.1522-8.75-5.5802-11.5-7.6178s-8.183-5.2936-12.073-7.2357c-3.8903-1.9421-9.0653-5.0451-11.5-6.8956-2.44-1.84-7.35-5.12-10.93-7.27-3.575-2.16-9.2-6.02-12.5-8.59-3.3-2.56-8.475-6.24-11.5-8.17-18.489-11.78-50.79-50.62-55.921-67.23-11.231-36.36 8.919-62.02 48.703-62.02 18.641 0 18.475 0.13649 12.845-10.562-13.214-25.11-37.424-52.74-58.449-66.7-9.263-6.15-10.419-10.17-7.695-26.78 3.564-21.73 1.775-32.15-10.051-58.53-8.829-19.7-8.3051-34.13 1.5776-43.43 8.8724-8.35 26.2-32.28 28.408-39.24 0.78125-2.4615 13.081-14.257 14.868-14.259 4.724-0.005 30.002-14.414 38.786-22.11 12.024-10.534 13.654-12.242 18.041-18.902 8.5266-12.945 10.7-16.78 12.335-21.768 3.5891-10.944 10.407-15.673 24.051-16.681 13.316-0.98398 12.833-0.61146 15.461-11.922 1.603-6.8981 4.158-11.291 10.245-17.616l5.2936-5.5 0.006-10.103c0.003-5.963 0.46567-10.676 1.1279-11.5 0.61714-0.76816 2.3437-4.9681 3.8368-9.3331 2.5924-7.5786 6.9448-16.454 14.95-30.483 2.0146-3.5308 4.6069-9.3808 5.7606-13 1.1538-3.6192 2.935-8.2499 3.9584-10.291 2.22-4.414 2.3-8.213 0.35-16.293-2.43-10.054-1.93-19.064 1.61-29.172 1.71-4.855 3.43-10.403 3.84-12.328 1.0216-4.8543 2.9526-8.2819 9.7227-17.258 3.2182-4.2667 7.106-9.5844 8.6395-11.817 5.4979-8.0043 20.841-10.54 30.884-5.1043 7.1824 3.8878 15.803 10.008 18.095 12.848 4.2956 5.3217 11.424 7.7444 14.655 4.9805 0.86831-0.74286 3.9051-2.0902 6.7484-2.994 2.8433-0.90386 9.8762-3.8969 15.629-6.6512 18.554-8.8839 55.319-8.7465 77.202 0.28857 3.3 1.3625 7.575 2.8016 9.5 3.1981 1.925 0.39645 5.8048 2.0232 8.6217 3.615 6.0308 3.4079 10.129 3.6648 13.696 0.85854 1.4234-1.1196 4.0715-2.5429 5.8849-3.1628 1.8133-0.61991 4.8719-2.1887 6.7969-3.4862 3.2726-2.2058 4.1499-2.322 13.5-1.7885 21.037 1.2005 24.51 2.5097 31.399 11.837 6.3022 8.5332 6.9219 10.384 7.6051 22.711 0.38521 6.9503 1.2687 12.928 2.2558 15.262 1.9996 4.7281 0.62678 16.57-2.8606 24.677-3.043 7.0737-0.38945 15.65 8.04 25.986 15.975 19.589 20.714 33.07 17.223 49-0.54229 2.475-1.5697 7.093-2.2831 10.262l-1.2971 5.7622 6.299 6.3555c3.4644 3.4955 8.396 7.3888 10.959 8.6517 19.242 9.4816 29.994 21.714 30.983 35.249 0.47073 6.4442 1.1462 7.1262 7.9105 7.9865 13.326 1.6948 36.941 25.44 41.812 42.042 0.35359 1.2051 2.1187 5.1162 3.9225 8.6912s3.5965 7.5276 3.9839 8.7836c0.98745 3.2018 10.403 16.306 18.119 25.216 7.9985 9.2371 15.295 23.507 19.942 39 2.131 7.1054 8.108 16.453 16.907 26.441 5.301 6.0173 9.8727 12.092 10.159 13.5 0.28659 1.4077 1.2444 4.8559 2.1285 7.6628 2.4738 7.8542-0.1248 25.993-4.8575 33.905-1.8423 3.0801-4.454 7.4882-5.8039 9.7959-1.3498 2.3076-7.0644 10.486-12.699 18.174-5.6346 7.6882-10.523 15.086-10.862 16.439-0.33964 1.3532-1.409 3.6129-2.3764 5.0214-0.96741 1.4085-2.3693 4.136-3.1154 6.061-4.9115 12.673-13.324 27.682-18.716 33.392-3.1773 3.365-7.5769 8.2905-9.7769 10.946-3.9824 4.806-16.306 16.286-30.769 28.662-6.6653 5.7038-9.8001 11.424-3.9538 7.2149 14.352-10.333 34.887-10.732 52.033-1.0113 29.063 16.477 32.793 37.267 12.173 67.842-2.765 4.0999-5.7824 8.5793-6.7055 9.9543-0.92305 1.375-3.558 4.5592-5.8555 7.0761s-4.5132 5.6669-4.9238 7c-1.5125 4.9105-33.425 34.376-44.466 41.057-3.9695 2.4018-9.5381 5.8149-12.375 7.5846-2.8366 1.7697-9.8516 5.4911-15.589 8.2698-5.7373 2.7787-11.841 6.1272-13.564 7.4411-1.7226 1.3139-4.8469 3.1054-6.9428 3.9812-9.2047 3.846-32.481 24.591-47.226 42.09-12.517 14.856-18.621 33.099-13.581 40.595 0.95961 1.4275 3.4181 5.0963 5.4634 8.153 3.617 5.4056 5.1442 6.8718 18.781 18.031 9.3668 7.6647 11.988 9.3701 23.329 15.179 17.945 9.191 25.68 13.305 26.941 14.33 1.2298 0.99939 17.675 6.2635 25.231 8.0765 2.2 0.52786 5.35 1.4388 7 2.0244 10.279 3.6477 27.754 8.2077 38.5 10.046 6.875 1.1761 15.425 2.7773 19 3.5581 3.575 0.78084 8.3 1.7268 10.5 2.1022 15.725 2.6832 15.548 23.362-0.20034 23.419-8.6238 0.031-10.852 2.2424-4.0497 4.0199 10.941 2.8592 8.7962 18.215-3.0071 21.525-3.1586 0.88571-8.5187 2.5207-11.911 3.6333-5.8734 1.9261-6.4046 1.9445-11.102 0.38412-3.7309-1.2392-5.5953-1.3873-7.6466-0.60743-4.753 1.8071-14.031 1.2984-16-0.87727-0.95-1.0498-2.9322-2.337-4.405-2.8605-7.3394-2.609-10.317-3.2842-13.528-3.0679-2.5798 0.17373-3.9873-0.34424-5.3279-1.9606-11.487-13.85-43.28-9.1455-54.396 8.0494-6.83 10.61-29.44 10.47-40.92-0.22l-6.5-6.05 2.4882-2.0792c4.0169-3.3566 9.793-2.1402 17.218 3.626 7.2276 5.6128 12.276 6.8354 15.143 3.6672 4.4213-4.8855-0.15343-10.907-13.144-17.299-8.4672-4.1668-14.75-8.1268-23.798-14.999-2.8-2.12-5.46-3.86-5.91-3.86-4.05 0-27.74-21.65-34.87-31.85-9.66-13.84-12.28-20.51-11.46-29.15 0.64647-6.7993 5.7695-5.0405 8.0698 2.7704 7.1754 24.365 30.074 45.493 49.473 45.648 15.613 0.12458 19.206-4.536 4.5545-5.9079-8.6424-0.80924-17.773-3.7879-18.655-6.0856-0.84524-2.2027 1.7898-2.7848 5.0502-1.1156 9.1291 4.6738 13.825 2.714 7.9996-3.3386-9.4622-9.8309-12.62-16.214-8.6442-17.476 1.959-0.62175 8.4596 2.5367 9.1641 4.4526 2.08 5.65 31.5 29.05 36.53 29.05 0.29938 0 7.3497 3.7537 15.667 8.3415 8.3177 4.5878 18.273 9.6009 22.123 11.14 15.294 6.1149 38.449 13.796 46.5 15.425 4.675 0.94583 9.512 2.2694 10.749 2.9413 1.4278 0.77556 3.9966 0.98972 7.0357 0.58657 3.0216-0.40082 7.1708-0.0607 11.251 0.92216 10.659 2.5676 13.447 2.478 15.032-0.48283 1.8-3.35-0.27-6.87-4.05-6.87-1.9836 0-3.7778-0.86232-5.2018-2.5-1.1956-1.375-2.9858-2.5-3.9784-2.5-0.99256 0-3.9489-1.2964-6.5697-2.881-6.2483-3.7778-9.0228-4.5741-26.265-7.5391-14.275-2.4546-29.834-6.4537-32.261-8.2917-0.68136-0.51594-3.261-1.5178-5.7324-2.2263-5.2881-1.516-23.552-10.518-24.521-12.086-0.36814-0.59567-4.0817-2.6807-8.2524-4.6333s-8.2114-4.1786-8.9795-4.9467c-0.76-0.77-1.86-1.4-2.44-1.4-5.33 0-32.81-23.1-32.81-27.58 0-4.4207 4.4445-4.4063 9.1871 0.0297 5.2154 4.8782 12.064 8.5491 15.95 8.5491 6.1986 0 5.2997-1.5132-4.3937-7.3963-23.821-14.457-43.266-40.877-37.836-51.406 1.0491-2.034 3.2882-7.0731 4.9758-11.198 1.6876-4.125 3.7627-9.1933 4.6114-11.263 1.5191-3.7045 1.5039-3.7807-0.97576-4.9105-4.5958-2.094-2.24-4.7737 4.2312-4.813 3.4091-0.0207 2.7085-2.754-0.90958-3.5487-2.4611-0.54055-12.135-5.8657-14.783-8.1376-1.1184-0.95943-0.72454-9.0695 0.56114-11.556 1.5282-2.9551 4.8554-3.6589 8.3802-1.7725 1.523 0.81508 2.2601 0.44672 4.0024-2 2.5223-3.5422 3.3258-3.6367 8.4994-0.99909 8.9414 4.5586 21.886 0.99755 32.25-8.8722 5.7597-5.4849 6.4053-7.4665 3-9.2082-13.329-6.8172-14.639-15.987-3.1104-21.771 2.8705-1.4401 4.4839-3.0644 5.2625-5.2979 2.7851-7.9895 5.1451-8.3792 9.5015-1.5691 5.5522 8.6794 10.938 10.993 23.569 10.123 9.0921-0.62621 14.29-2.4047 7.0276-2.4047-4.3696 0-21.355-3.0212-22.344-3.9744-4.1336-3.9837 1.7438-5.7336 12.165-3.6219 8.7334 1.7696 17.195 1.2132 20.346-1.3378l2.0236-1.6386-2.1963-4.2136c-1.61-3.08-2.82-4.22-4.48-4.22-3.093 0-4.7477-2.2505-3.9606-5.3867 0.35587-1.4179 0.14434-4.02-0.47007-5.7825-1.5858-4.549-0.0219-5.787 4.3418-3.437 4.0122 2.1607 5.4789 1.5946 4.8186-1.8598-0.37522-1.9628 0.0377-2.706 1.8841-3.3912 1.8428-0.68388 2.3646-1.6189 2.3646-4.2372 0-4.6465 2.4466-4.8481 7.1807-0.59172 6.4508 5.7998 11.402 8.6861 14.9 8.6861 3.2795 0 5.87-2.0165 3.5738-2.7819-9.9357-3.3119-21.627-19.081-13.32-17.967 2.1088 0.28285 4.5317 0.12388 5.3843-0.35326 1.05-0.5876 2.3754-0.21845 4.1074 1.144 11.673 9.1818 26.923 6.1484 32.185-6.4021 0.72399-1.7268 3.1553-6.2824 5.4028-10.124 16.213-27.71-22.404-46.884-48.379-24.022-1.6313 1.4357-4.3595 3.4717-6.0627 4.5243-1.7032 1.0527-3.7384 3.1668-4.5226 4.6981-6.9128 13.498-31.026 34.895-41.414 36.748-6.1906 1.1044-9.2012 3.139-13.269 8.9668-7.9174 11.344-18.192 24.228-22.392 28.079-2.4055 2.2052-5.9486 6.096-7.8736 8.6462s-5.0659 5.696-6.9798 6.9905c-1.9139 1.2946-7.3882 6.4038-12.165 11.354-12.977 13.447-12.914 13.389-24.004 22-5.6669 4.4-15.714 13.263-22.327 19.695-6.6131 6.4323-16.339 15.882-21.613 21-16.13 15.65-26.37 33.88-27.96 49.8-0.41362 4.125-1.3005 9.975-1.9709 13-2.2196 10.016-1.3763 42.714 2.0636 80.009 0.70405 7.6334 0.65316 11.347-0.18598 13.57-2.25 5.94 5.53 20.42 10.96 20.42 5.1794 0 10.918-9.1903 7.1808-11.5-1.7789-1.0994-1.0639-4.6353 1.5703-7.7659 2.3916-2.8423 2.5287-3.5475 1.9719-10.144-1.437-17.025-2.3911-52.319-1.5164-56.093 0.50957-2.1982 0.93722-5.8139 0.95034-8.0349 0.0498-8.4311 5.7702-15.573 9.4923-11.851 1.7036 1.7036 1.7007 1.9649-0.11864 10.639-0.54355 2.5914-0.37235 2.75 2.9693 2.75 3.7592 0 5.3681 2.1557 4.2915 5.75-0.32473 1.0842 1.1561 4.0328 3.8921 7.75 2.4289 3.3 7.4358 10.224 11.126 15.386 7.6 10.64 12.71 16.12 15.01 16.12 0.86501 0 2.4466 1.111 3.5147 2.4688 1.7464 2.2202 6.8822 5.8575 19.596 13.878 5.3352 3.3659 5.8002 6.8638 1.2563 9.4494-2.3675 1.3472-2.995 2.3898-3 4.9849-0.009 4.4124-2.6042 5.3875-5.4706 2.055-17.299-20.111-43.496-21.639-43.55-2.5393-0.0187 6.6042-1.703 9.931-5.6849 11.229-3.7061 1.2079-7.3004 4.2266-7.3004 6.1312 0 7.501-18.6 12.594-26.1 7.1475-6.076-4.4125-14.415-4.3155-19.59 0.22792-4.0874 3.5888-14.671 4.1496-21.921 1.1616zm16.81-9.44c2.7868-2.2036 5.1151-14.221 7.314-37.75 0.3341-3.575 1.0464-9.875 1.5829-14 2.0841-16.025 2.1065-78.993 0.0293-82.513-1.0221-1.7323-2.4003-4.7919-3.0628-6.799-4.483-13.584-29.055-38.538-46.866-47.595-2.3673-1.2038-6.2378-3.6647-8.6012-5.4687s-7.8515-5.2096-12.196-7.5681c-4.3444-2.3585-9.2488-5.5452-10.899-7.0815-1.65-1.5363-6.8788-5.8716-11.619-9.6339-4.7407-3.7623-14.019-11.426-20.618-17.031-6.599-5.6047-13.72-11.359-15.825-12.787-2.1046-1.4283-6.9702-5.7907-10.812-9.6943-3.8422-3.9036-9.7173-9.0956-13.056-11.538-9.3726-6.8564-37.759-33.765-45.262-42.907-5.601-6.8236-25.494-22.917-35.308-28.564-3.025-1.7406-7.3439-4.4116-9.5976-5.9354s-7.2037-3.9984-11-5.4989c-12.683-5.0133-20.863-11.49-24.017-19.015-3.8986-9.3027-25.012-17.48-36.07-13.97-4.6364 1.4715-3.6997 3.8847 1.2215 3.1467 6.234-0.94 10.47 0.09 10.47 2.53 0 1.6-0.726 1.92-4.304 1.92-5.2323 0-14.115 4.1833-16.45 7.747-3.7524 5.7269 7.2717 35.822 14.329 39.119 1.6084 0.75124 3.5993 1.7728 4.4243 2.2701 7.0882 4.2728 16.809 6.4122 21.74 4.7847 1.8382-0.60666 4.0785-0.82047 4.9785-0.47512 2.9836 1.1449-0.71924 3.3234-8.185 4.8156l-6.9662 1.3924 3.3655 1.1732c5.5635 1.9394 13.564 0.41071 22.969-4.3888 3.776-1.927 6.3324-1.1298 6.9557 2.1692 0.53867 2.8512 1.9685 4.1957 5.2218 4.9103 3.9205 0.86108 5.9206 3.025 5.9206 6.4057 0 1.7329 1.1449 3.9783 3.0393 5.9606 1.6716 1.7492 2.7385 3.6669 2.371 4.2616-1.2615 2.0411-9.5066 5.0473-12.075 4.4027-1.9293-0.48422-2.9537-0.0312-4.5668 2.0195-1.7118 2.1762-2.6581 2.5498-5.3514 2.1128-8.5424-1.3862-9.6011 1.8544-2.1669 6.6328 2.8875 1.856 6.7958 4.8282 8.6851 6.6048 9.81 9.2252 17.356 8.5371 28.968-2.6415 5.4261-5.2236 8.627-3.3087 4.0966 2.4508-3.9849 5.0659-0.72261 6.104 4 1.2729 5.0775-5.1942 8.5032-3.9778 4.9963 1.7742-3.594 5.8946-0.46493 9.1797 3.7002 3.8846 3.5743-4.544 7.3036-5.3949 7.3036-1.6665 0 2.3326 4.1532 5.992 10.812 9.5267 10.705 5.6822 8.8626 7.6778-8.3038 8.9949-10.915 0.83749-14.679 4.005-8.2585 6.9496 1.7875 0.81976 6.175 3.2953 9.75 5.5013 11.195 6.9079 11.935 7.1351 18.009 5.5328 2.9226-0.77097 5.5787-1.7905 5.9025-2.2657 0.32376-0.47517 1.6378-2.5217 2.9202-4.548 2.2429-3.5439 4.452-4.6523 5.5929-2.8062 0.29839 0.48279-1.0251 2.9308-2.941 5.44-2.94 3.85-4.62 8.68-3.03 8.68 1.09 0 5.55-2.38 5.55-2.96 0-0.61185 0.92904-1.9433 4.736-6.7874 1.6304-2.0746 1.9532-2.133 4.264-0.77225 1.375 0.80973 4.8625 2.6402 7.75 4.0678 6.7342 3.3293 7.5842 7.7582 2.3894 12.449-8.775 7.9235-9.1492 12.246-1.5214 17.575 22.31 15.59 38.38 34.32 38.38 44.72 0 0.7322 1.35 2.3294 3 3.5493 4.6997 3.4746 4.2782 16.023-0.70555 21.007-2.1806 2.1806-2.7397 0.53076-1.2992-3.8341 0.98073-2.9716 1.0395-4.5746 0.22938-6.255-0.86912-1.8027-1.103-1.9043-1.157-0.50272-0.0372 0.96614-1.2355 2.7661-2.6628 4s-4.3378 5.1702-6.4678 8.7474c-3.9469 6.6287-15.896 19.695-21.961 24.013-1.8464 1.3147-6.0066 4.7546-9.245 7.6441s-6.8396 5.5558-8.0028 5.9249c-1.1632 0.36919-4.1653 2.0828-6.6714 3.8079-2.5061 1.7252-7.2565 4.4556-10.556 6.0676-3.3 1.612-8.475 4.7892-11.5 7.0603-6.1043 4.5831-22.977 11.24-31.379 12.38-2.8444 0.386-5.7102 1.0347-6.3685 1.4415-5.5104 3.4056-39.707 5.663-51.463 3.3972-8.112-1.56-8.79-1.46-8.79 1.32 0 5.4355 10.093 9.9945 15.311 6.9159 3.9555-2.3338 11.577-0.99976 15.919 2.7866 2.9637 2.5841 24.126 0.82715 28.29-2.3487 1.7428-1.3293 3.4828-2.4169 3.8667-2.4169 1.1838 0 40.161-18.883 51.167-24.788 2.7794-1.4914 6.3203-3.7184 7.8688-4.9489 4.2058-3.3423 17.528-9.4959 19.183-8.8608 1.3348 0.51221 1.3054 2.4982-0.10686 7.2176-0.18424 0.61568-2.8461 1.3277-5.9153 1.5822-7.4028 0.61389-8.4692 3.0029-2.2638 5.0714 2.8094 0.93646-1.0134 2.727-5.8221 2.727-4.2524 0-5.9754 0.50799-8.191 2.4149-6.9073 5.9452 7.5321 6.5201 17.503 0.69688 3.8722-2.2615 7.3014-4.1118 7.6204-4.1118 1.0134 0 13.931-9.1525 17.571-12.45 3.3785-3.0602 13.634-11.016 24.235-18.8 6.8032-4.9957 10.765-4.7031 10.765 0.79501 0 2.5555-1.4599 3.9632-10.018 9.6593-3.5652 2.3729-11.76 8.2477-18.212 13.055-6.43 4.81-12.1 8.74-12.57 8.74-0.47381 0-4.8035 2.7327-9.6216 6.0726-13.213 9.1597-20.768 13.604-35.058 20.625-7.15 3.5127-13.675 6.8112-14.5 7.3298-0.825 0.51867-2.9368 1.591-4.6928 2.383-1.756 0.79198-4.898 2.5987-6.9821 4.0149-3.3086 2.2483-4.8278 2.5749-11.975 2.5749-9.2961 0-11.365 0.52241-11.314 2.857 0.1705 7.7894 18.771 11.914 29.262 6.4892 1.7189-0.88886 5.3568-1.8929 8.0842-2.2312 3.9926-0.49518 5.2669-1.1422 6.5387-3.3201 1.9611-3.3583 11.857-11.037 17.989-13.957 2.525-1.2028 7.2316-4.0207 10.459-6.2622 3.2276-2.2414 6.6026-4.5308 7.5-5.0875 4.6738-2.8992 8.4774-5.5841 16.954-11.968 5.1272-3.8612 11.427-8.4452 14-10.187 2.5728-1.7415 6.414-4.554 8.5359-6.25 4.7151-3.7685 6.3298-3.8626 7.8805-0.45927 1.15 2.524 1.4319 2.6023 7.3747 2.0473l6.179-0.577 0.47317 3.7027c0.62729 4.9087-0.49042 5.9653-4.5294 4.2817-5.2134-2.1731-10.173-2.4217-13.543-0.67886-5.4179 2.8017-5.0186 5.56 0.80703 5.5761 1.375 0.004 5.5814 0.79667 9.3475 1.7619l6.8475 1.755 2.3976-2.9966c7.5028-9.377 10.652-24.221 5.4074-25.485-3.4955-0.84189-3.1898-3.4335 0.45387-3.848 1.6246-0.18485 3.8623-0.97235 4.9725-1.75 5.3311-3.7341 7.6752 0.19021 5.7323 9.5966-0.63728 3.0854-1.1587 6.8382-1.1587 8.3395 0 3.2295-2.8608 9.1426-6.5367 13.511-1.4478 1.7206-3.8318 5.2962-5.2978 7.9458s-4.5845 7.4894-6.93 10.755c-2.3455 3.2657-6.4663 9.3127-9.1574 13.438-2.6911 4.125-7.6786 10.65-11.083 14.5-3.4047 3.85-6.885 8.35-7.734 10-0.84896 1.65-2.3799 4.0732-3.4022 5.3849-2.4406 3.1316-2.4522 7.792-0.0213 8.5635 5.5087 1.7484 21.572-11.057 35.053-27.944 13.246-16.593 15.502-20.263 20.118-32.735 1.1667-3.152 2.5056-5.9684 2.9752-6.2587 0.46959-0.29022 2.668-4.2363 4.8854-8.769 7.4172-15.162 16.917-21.45 16.431-10.876l-0.20076 4.3652 3.2008-0.70441c5.7482-1.2651 6.1865-1.1497 6.5164 1.7157 0.46877 4.072-3.708 5.8097-8.1781 3.4024-3.9576-2.1313-5.8136-1.5139-7.9671 2.65-0.91194 1.7633-2.2074 3.972-2.8789 4.9081-1.8436 2.5703-0.36069 3.1787 4.6639 1.9135 6.3133-1.5897 11.798-0.50393 15.155 3.0001 1.5199 1.5864 3.1292 2.8844 3.5763 2.8844 1.1296 0 1.0217-12.685-0.13967-16.429-0.52393-1.689-1.3114-6.2209-1.75-10.071-0.78367-6.8791-0.86638-7.0354-4.7974-9.0617-5.4384-2.8034-5.8058-5.7355-1.0687-8.5305 4.2462-2.5053 4.1556-1.9542 1.0687-6.5032-3.0944-4.5598-3.2764-8.919-0.43608-10.439 4.8717-2.6073 10.771 8.5181 11.948 22.534 0.46202 5.5 1.31 11.232 1.8844 12.737 0.57444 1.5055 1.512 6.0055 2.0836 10 0.57154 3.9945 1.452 9.7378 1.9566 12.763 1.2298 7.3729 1.2737 16.033 0.10752 21.236-0.52575 2.3454-1.4464 8.7644-2.0459 14.264-0.59951 5.5-1.5405 13.825-2.0912 18.5-1.2742 10.818 3.9408 16.772 10.292 11.75zm-95.61-134.6c-0.28964-0.46865 0.3588-2.5888 1.441-4.7114 1.23-2.41 1.97-5.87 1.97-9.18 0-3.8063 0.42677-5.4837 1.5-5.8955 2.4217-0.92928 1.7847-2.8685-3.25-9.8947-9.71-13.55-10.36-15.47-5.25-15.47 3.8842 0 9.9512 5.4184 14.01 12.512 7.7017 13.461 7.9985 22.003 0.73996 21.294-2.7989-0.27328-3.2039 0.029-3.7905 2.8294-1.1445 5.4634-5.8722 10.928-7.3649 8.5126zm29.66-31.37c-4.4895-3.316-5.4939-6.5044-2.763-8.7709 2.2219-1.844 5.9054-0.46683 9.4016 3.5151 6.7171 7.6504 1.8357 11.515-6.6386 5.2558zm-204.8-164.24c-3.8865-1.6436-11.664-10.17-11.253-12.336 0.75101-3.9618 5.6808-2.6318 11.384 3.0712 7.2615 7.2615 7.1896 12.361-0.13057 9.2652zm250.56 314.18c3.5768-10.177 2.7511-13.004-5.3997-18.491-7.45-5.02-15.88-5.93-20.61-2.23-1.375 1.0755-2.8675 1.9655-3.3167 1.9778-0.4492 0.0122-2.2917 1.1472-4.0944 2.5222-4.3683 3.3319-5.919 3.2327-3.9078-0.25 5.3575-9.2777 23.638-14.785 29.998-9.0381 7.605 6.8723 14.143 4.2397 8.6731-3.4922-6.2754-8.8704-12.848-10.309-22.705-4.9702-3.1543 1.7084-6.5009 2.8399-7.5717 2.5599-1.4324-0.37457-2.6359 0.6002-4.7468 3.8445-3.8466 5.912-9.627 13.382-14.197 18.346-5.1912 5.6396-2.2556 7.2257 5.7214 3.0913 12.005-6.2223 20.724-6.3062 28.894-0.27805 3.0622 2.2592 7.2532 6.8987 7.2532 8.0294 0 6.9538 3.3073 6.0588 6.0083-1.626zm192.42-8.6585c2.036-1.618 5.7131-3.71 8.1713-4.6488 5.0446-1.9265 5.2976-3.7562 0.58379-4.2221-6.385-0.63101-16.019 7.031-13.653 10.859 0.8026 1.2986 0.72151 1.3315 4.8984-1.9879zm-278.31-3.0797c6.9318-6.9318 6.4711-7.7983-5.6168-10.567-17.128-3.9234-29.376-2.6673-41.129 4.2182-2.4811 1.4535-6.7661 2.7364-10.736 3.2143-6.5292 0.78604-8.565 1.5593-7.3374 2.7868 0.34683 0.34682 7.5093 0.11861 15.917-0.50714 22.444-1.6704 24.153-1.5534 33.286 2.278 10.373 4.3516 9.7891 4.4048 15.617-1.423zm274.06-5.2793c4.9446-3.7714 5.3868-5.0909 1.8277-5.4545-3.8012-0.38831-12.519 5.4251-10.957 7.3068 1.87 2.2533 4.4269 1.7345 9.1296-1.8523zm-9.74-4.95c8.06-5.3235 5.6385-8.6468-3.393-4.6567-8.215 3.6293-9.7246 4.9406-7.5328 6.5434 2.8858 2.1101 5.5785 1.6451 10.926-1.8866zm-70.94-0.06c-1.1-0.65515-3.7018-2.9691-5.7819-5.1421-9.2526-9.6662-21.274-10.108-24.771-0.90992-1.3587 3.5736-0.72111 3.8877 4.0316 1.986 6.2218-2.4895 18.888-0.10122 21.321 4.02 0.43983 0.74513 2.2398 1.3283 4 1.296 2.9368-0.054 3.0356-0.1569 1.2003-1.25zm-182.72-3.25c6.701-4.6936-3.5886-11.716-18.939-12.926-9.4143-0.74186-10.56-0.41913-17.088 4.812-5.0556 4.0513-4.7612 4.6703 2.2216 4.6703 5.3014 0 14.55 1.449 25.028 3.9214 5.3446 1.261 6.3746 1.2049 8.7775-0.47815zm243.26-2.9602c8.2715-4.1915 4.8876-6.1063-5.3185-3.0095-6.1219 1.8575-6.7479 2.2765-6.0641 4.0584 0.85469 2.2273 5.8204 1.7697 11.383-1.0489zm144.46-4.31c9.8214-0.65775 10-0.71436 10-3.1697v-2.5l-9 0.3686c-5.7451 0.23529-10.774 1.0657-13.904 2.2961-5.4105 2.1266-8.1488 1.2452-5.2226-1.681 3.9046-3.9046-2.1325-4.6453-11.086-1.3602-8.908 3.2684-8.9462 5.0695-0.14415 6.8018 4.1755 0.82174 6.8216 0.75363 29.357-0.75557zm-151.82-2.6953c9.594-2.9263 12.402-5.7196 7.6133-7.5738-2.3614-0.91441-3.5044-0.68244-7.4376 1.5094-3.7812 2.1072-5.9711 2.5899-11.75 2.5899-7.8785 0-8.8213 0.98151-3.8526 4.011 4.1784 2.5476 5.462 2.5029 15.427-0.53655zm-227.52-2.22c7.604-8.253 7.4533-9.2902-1.7654-12.152-9.4441-2.9316-17.426-2.4418-24.118 1.4799-5.8572 3.4326-5.079 4.6355 3.8966 6.0233 4.9246 0.76143 9.3944 2.2265 12.927 4.2373 6.6066 3.7603 5.9991 3.7327 9.0593 0.41135zm42.435-0.38802c2.88-3.24 7.68-4.86 14.37-4.86 6.4348 0 7.2366-0.79547 4.0321-4-2.3898-2.3898-7.3184-2.6039-11.364-0.49384-1.5754 0.82161-3.419 1.4938-4.097 1.4938-2.827 0-8.2767 6.9969-7.0259 9.0207 0.92198 1.4918 1.991 1.1884 4.0822-1.1587zm104.81-0.36c3.006-1.375 5.9602-2.5 6.5648-2.5 0.78938 0 0.79752-0.56379 0.0289-2-1.6346-3.0542-5.8538-2.534-9.7024 1.1962-5.8393 5.6597-4.6967 6.8741 3.1087 3.3038zm171.09-3.5c0.33992-0.55-0.30852-1-1.441-1-3.0036 0-2.5175-1.7115 1.0032-3.5322 4.6792-2.4197 3.5375-4.83-2.6464-5.5868-2.7817-0.34043-6.0086-1.1279-7.1709-1.75-1.16-0.62-3.34-1.13-4.84-1.13-1.5003 0-4.6229-1.1106-6.9391-2.4679-7.3008-4.2786-17.01-4.304-13.467-0.0352 2.3015 2.7732 8.705 5.5031 12.908 5.5031 3.29 0 4.2129 0.45339 5.2898 2.5987 0.82848 1.6503 3.1293 3.3244 6.3046 4.5874 2.75 1.0938 5.675 2.3729 6.5 2.8425 2.0614 1.1733 3.7639 1.1625 4.5-0.0286zm-170.26-10.33c0.75804-4.5637-4.1332-10.094-7.2331-8.1784-1.3666 0.84459-1.2858 9.8286 0.10078 11.215 1.712 1.712 6.696-0.4101 7.1323-3.0368zm131.81-12.114c-2.0932-2.5221-11.322-4.841-14.438-3.6278-3.5095 1.3662-3.4162 1.4725 3.9112 4.4536 6.228 2.5338 12.882 2.0119 10.527-0.82572zm-172.43-112.08c10.015-1.7161 15.5-3.615 19.881-6.883 1.65-1.2308 5.475-3.5924 8.5-5.2481 21.362-11.692 37.263-23.085 58.406-41.847 14.314-12.702 18.822-24.394 9.0937-23.584-13.08 1.0886-14.194 0.13673-5.7914-4.9484 16.05-9.72 27.29-20.2 27.29-25.47 0-1.7741 1.0236-4.7509 2.2746-6.6151 4.49-6.68 5.28-12.88 1.65-12.88-1.28 0-1.92-0.7-1.92-2.07 0-2.4-4.75-10.93-6.09-10.93-0.49324 0-6.413 5.5307-13.155 12.29-14.493 14.531-23.639 20.566-24.997 16.492-0.22312-0.66938 3.0019-3.4614 7.1667-6.2044 10.933-7.2005 29.725-26.495 31.093-31.923 1.5271-6.0596 2.2862-7.5692 6.8536-13.629 8.0515-10.682 1.4317-10.444-9.7395 0.35065-11.656 11.262-14.041 13.285-22.042 18.698-6.8474 4.6317-10.603 5.8748-10.345 3.4244 0.13063-1.2432 11.293-9.3413 13.003-9.433 0.6875-0.0369 1.25-0.44332 1.25-0.90324 0-0.45993 2.2625-2.5974 5.0278-4.75s7.0082-5.7782 9.4285-8.057c2.4204-2.2788 5.2204-4.7538 6.2222-5.5 7.3546-5.4783 25.302-30.173 26.786-36.857 1.5897-7.1576-3.7097-5.4323-7.6791 2.5-9.5585 19.101-25.908 39.292-30.562 37.741-2.5304-0.84348-1.0262-4.0032 5.3605-11.26 8.7198-9.9078 15.786-21.241 14.928-23.943-0.46-1.46-0.2-2.04 0.92-2.04 0.92 0 1.57-0.86 1.57-2.05 0-1.1292 1.125-3.7086 2.5-5.7321 6.6146-9.7343-3.2814-8.4154-16.946 2.2586-4.5799 3.5774-6.4952 4.5071-8.3344 4.0455-1.3706-0.344-4.7234 0.27442-7.8694 1.4515-4.9559 1.8542-5.6881 1.906-7.638 0.54024-1.18-0.83-3.3-1.51-4.69-1.51-1.396 0-5.5709-2.0345-9.2775-4.5211l-6.74-4.52v-4.7934c0-8.6429 13.511-22.273 30.99-31.263 12.533-6.4465 15.079-9.9751 10.501-14.553-0.83006-0.83005-1.2114-1.9911-0.84736-2.5801 0.42216-0.68307 1.1456-0.40936 1.9976 0.75583 3.006 4.1109 9.3932-2.8942 9.3222-10.224-0.0375-3.8769-2.326-17.071-3.0588-17.636-6.6539-5.1266-9.949-5.7579-13.904-2.6639-1.375 1.0755-2.8622 1.9655-3.3049 1.9778-0.44268 0.0122-2.6927 0.86933-5 1.9047-26.153 11.735-26.399 11.748-37.985 2.0067-12.784-10.749-9.7397-19.972 9.7898-29.658 37.971-18.833 38.242-19.103 41.391-41.231 0.50884-3.575 1.4164-7.7668 2.0169-9.3151 0.60045-1.5483 1.0917-3.8842 1.0917-5.191 0-1.3067 0.44809-2.6528 0.99575-2.9913 0.9164-0.56637 1.5839 0.5543 3.5721 5.9974 1.8057 4.9434 3.53-8.5533 2.4912-19.5-0.54798-5.775-1.2421-13.875-1.5425-18-1.0068-13.826-2.4176-18.897-5.7346-20.613-5.4571-2.822-10.045-17.188-6.8635-21.491 1.1448-1.5485 2.0815-4.1312 2.0815-5.7393 0-5.8727 12.236-3.4574 13.597 2.6839 1.7808 8.0374 2.6067 7.9362 7.4033-0.90707 6.859-12.646 12.241-17.148 17.586-14.713 4.5371 2.0672 5.0506 5.7419 3.8817 27.779l-0.71604 13.5 3.3037 8c6.4112 15.525 25.262 40.879 31.979 43.011 8.1147 2.5755 19.228-10.941 19.331-23.511 0.0878-10.725-2.763-15.019-3.9633-5.9708-1.1787 8.8855-10.1 21.443-14.76 20.775-3.4285-0.49137-3.0925-3.5625 0.86942-7.948 9.4538-10.464 11.916-22.64 6.3505-31.41-5.3099-8.3678-7.1094-14.862-6.4492-23.273 0.60862-7.7543-0.0115-9.9514-3.9323-13.932-1.2239-1.2424-2.8033-4.3924-3.5099-7-2.6521-9.7876-10.116-19.953-19.096-26.008-5.2769-3.558-6.8164-6.8706-5.0228-10.807 1.588-3.4853 3.8688-3.1071 11.263 1.8676 2.0686 1.3916 3.1793 1.5447 5.3151 0.73269 1.485-0.56461 3.7801-1.0266 5.1002-1.0266 2.482 0 9.4697-5.3786 9.4697-7.2891 0-3.4164 5.5158-6.6706 6.2898-3.7109 0.72281 2.764 1.7714 2.5282 6.2936-1.4157 4.4328-3.8659 4.1783-4.1294-4.7525-4.9208-6.3748-0.56485-7.092-0.17874-11.248 6.0554-2.9713 4.4575-6.071 6.1933-7.8618 4.4026-0.76951-0.76951 0.12793-2.2942 3.1423-5.3388 4.7782-4.826 7.3714-11.921 7.4955-20.509 0.14223-9.8397-4.1108-9.3228-6.2737 0.76251-1.6114 7.5136-4.9712 12.418-12.975 18.941-10.696 8.7173-14.937 7.1689-5.2772-1.9267 5.7978-5.4592 12.476-15.235 12.005-17.573-0.39412-1.9564-3.2377 0.44244-8.1313 6.8597-1.754 2.3002-3.6279 3.6621-5.0386 3.6621-1.2353 0-3.9161 0.85149-5.9574 1.8922-5.1114 2.6059-4.7859 0.7413 1.0386-5.9495 8.67-9.96 10.89-13.94 7.75-13.94-0.825 0-1.5 0.635-1.5 1.4111 0 1.5162-5.5032 6.5889-7.1482 6.5889-0.54709 0-1.7501 0.75537-2.6733 1.6786-1.5714 1.5715-1.7001 1.567-2.0153-0.0697-0.31266-1.6232 0.67544-3.2995 7.4214-12.59 1.7024-2.3446 2.3091-4.1404 1.858-5.5-0.36832-1.1103-0.86334-3.8188-1.1-6.0188-0.71875-6.6805-1.3169-8.5-2.7943-8.5-1.7604 0-2.8947 3.3334-2.0451 6.0103 0.35093 1.1057 0.32977 4.4778-0.047 7.4935l-0.68508 5.4832-4.1356-0.63268c-5.3823-0.82341-5.2852-0.64413-3.32-6.1271 4.4937-12.538-0.51114-30.762-6.4938-23.646-1.277 1.5188-2.9967 3.4793-3.8217 4.3566-4.9563 5.2705-6.072 9.0621-2.6667 9.0621 3.2784 0 3.5042 0.49701 2.3948 5.2719-4.5612 19.632-15.766 33.168-24.03 29.027-4.5046-2.2571-4.4739-4.116 0.13829-8.3748 4.2981-3.9687 8.5241-12.11 10.225-19.698 0.90623-4.0438 2.5796-7.036 8.4114-15.04 2.8486-3.9099 2.3573-6.6106-1.0471-5.7562-2.7675 0.69459-3.9536-0.75192-2.1308-2.5987 3.28-3.33 13.7-18.41 13.7-19.84 0-4.9956-9.6252 0.99589-11.892 7.4024-0.2154 0.60885-2.5779 3.9098-5.25 7.3355s-4.8733 6.5757-4.8916 7c-0.0503 1.1671-3.6668 5.2715-4.6449 5.2715-0.47166 0-2.558 1.1555-4.6364 2.5678-6.3257 4.2984-6.679 1.9994-0.48346-3.1457 4.3379-3.6024 15.915-18.946 18.204-24.127 1.1183-2.5311 3.4583-5.3144 5.878-6.9912 6.0473-4.1908 8.9938-14.169 5.2806-17.882-0.94316-0.94316-1.2491-2.5875-0.89142-4.7914 0.61-3.73-0.99-7.63-3.12-7.63-1.59 0-5.55 5.95-5.55 8.33 0 2.36-5.9 8.67-8.1 8.67-2.88 0-2.2771-2.5526 1.4932-6.323 7.1446-7.1446 9.2129-17.241 4.6787-22.841-2.7033-3.3384-4.412-1.7471-6.8539 6.3829-2.8032 9.333-8.2144 15.065-8.2144 8.7017 0-0.96033 1.6075-4.1478 3.5722-7.0833 3.4269-5.1203 3.5471-5.5982 2.9549-11.756-0.92761-9.645-2.6519-9.4371-7.097 0.85561-2.8858 6.6822-5.0756 1.8495-2.4923-5.5004 2.9989-8.5324 2.7494-12.388-1.0154-15.692-3.7156-3.2604-3.4987-5.8789 0.58731-7.0893 11.266-3.3374 11.949-5.2062 10.726-29.37-0.82-16.182-2.32-21.287-6.25-21.287-2.6309 0-3.1074 7.8636-0.70311 11.603 9.0949 14.145 2.1733 37.24-9.1008 30.367-4.0977-2.4983-3.8654-5.0552 0.57504-6.3287 3.8201-1.0956 4.0387-1.9702 1.0206-4.0841-3.0384-2.1282-5.6364-1.9526-7.6353 0.51608-3.9378 4.863-16.878-2.1684-19.393-10.538l-1.21-4.035-0.32328 4.2041c-0.36737 4.7774 1.9095 12.365 4.8215 16.067 2.3701 3.0131 2.5113 5.0828 0.40199 5.8922-0.97284 0.37331-2.201-0.28794-3.25-1.7498-8.06-11.221-10.33-24.913-4.14-24.913 1.8637 0 1.9707-0.63905 1.7998-10.75-0.0999-5.9125 0.005-11.65 0.23333-12.75 0.82153-3.9584-3.3564-2.7138-10.039 2.9904-3.54 3.031-6.85 5.51-7.35 5.51-0.49614 0-2.317 1.1945-4.0464 2.6545l-3.14 2.655-0.3-4.077c-0.28431-3.8164-2.509-7.253-3.8361-5.9259-0.3253 0.3253-0.10686 1.9815 0.48541 3.6805 0.77898 2.2346 0.76657 3.7701-0.0449 5.551-1.465 3.2152-2.613 3.1177-3.3901-0.28802-3.1044-13.605-2.4957-12.571-8.6634-14.714-6.9189-2.4035-7.0215-2.3068-7.6997 7.2496-0.72074 10.156-2.3896 9.8377-3.1656-0.60401-0.71151-9.575-0.86181-9.8049-6.8819-10.53-7.8694-0.94758-16.387-2.4727-19.993-3.5796-5.9858-1.8375-8.951-1.3434-12.088 2.0142l-2.8833 3.0866-2.6527-2.0866c-4.9729-3.9117-7.4673-1.9022-5.403 4.3527 0.94505 2.8635 1.8714 3.7128 4.9555 4.5433 9.6 2.585 11.47 21.018 2.14 21.018-4.4196 0-5.3368 4.9068-1.447 7.7404 5.5518 4.0442 0.57761 11.834-7.3367 11.489-9.15-0.397-11.88-4.522-10.76-16.229 1.1533-12.004 0.93835-17.124-0.97349-23.188-2.4656-7.8209-5.0012-8.7965-4.072-1.5668l0.68 5.255-3.42-3.75c-6.6078-7.2468-8.273-4.8331-6.0187 8.7238 1.4957 8.9948 1.4893 9.7416-0.0974 11.328-1.7592 1.7588-4.254 0.02278-2.9648-2.0631 0.29126-0.47128 0.2138-4.0012-0.17215-7.8443-1.11-11.051-8.49-13.835-8.49-3.204 0 3.4846-1.3545 4.4334-2.4084 1.687-0.46951-1.2235-1.3916-1.4681-3.754-0.99559-2.8168 0.56336-3.6763 0.07288-8.5489-4.8781-7.5741-7.696-11.833-6.1048-11.268 4.2102 0.44631 8.1502 0.24205 11.216-1.0356 15.544-1.3482 4.5673-1.3158 4.8212 0.80499 6.3067 2.8611 2.004 2.7976 2.8614-0.80017 10.796-4.9902 11.006-10.715 9.1624-5.9649-1.9203 2.4346-5.6797 2.0363-6.3179-2.5716-4.1206-7.5311 3.5913-10.33 1.3554-4.9888-3.9856 5.9741-5.9741 7.6118-12.052 2.512-9.3228-1.2127 0.64901-3.8526 0.82881-6.45 0.4393l-4.3971-0.65939-0.70332 3.8538c-1.3374 7.3282-6.694 12.237-17.948 16.448-12.388 4.6349-13.639 8.5629-4.2405 13.318 6.3638 3.2198 12.526 8.7997 13.352 12.09 1.31 5.219-2.71 6.069-7.09 1.499-3.5157-3.6696-7.5026-4.0686-7.4944-0.75 0.009 3.4534 1.9727 9.75 3.0414 9.75 0.52415 0 0.95577 0.5625 0.95916 1.25 0.003 0.6875 0.68644 2.5544 1.5179 4.1488 1.8941 3.632 1.2596 4.3447-1.9789 2.2228-3.5285-2.312-5.6344-5.8684-6.2669-10.583-0.84-6.224-2.28-4.783-2.28 2.27 0 7.2586 2.8879 14.019 9.1812 21.493 2.6631 3.1628 5.8188 3.5201 5.8188 0.65879 0-4.3761 7.1747-5.3267 12.762-1.6907 3.4627 2.2534 12.074 1.207 16.316-1.9826 7.1297-5.3608 26.841-14.438 33.422-15.391 2.2-0.3186 5.4046-1.0048 7.1213-1.5248 1.7167-0.52003 6.6667-1.5737 11-2.3416 4.3333-0.76782 12.379-2.3652 17.879-3.5496 12.832-2.7635 32.025-1.6773 42.5 2.4052 1.925 0.75025 5.75 1.409 8.5 1.464 9.5825 0.19146 20.37 3.7234 26.462 8.6641 3.0456 2.4698 7.5625 5.6886 10.038 7.1527 2.475 1.4641 7.052 4.8373 10.171 7.4959 5.2449 4.4706 8.829 6.0767 8.829 3.9563 0-0.48265-0.675-1.4378-1.5-2.1224-3.7092-3.0784-1.2483-7.0363 4.3318-6.9667 5.6414 0.0703 16.427 16.638 19.612 30.127 0.73522 3.1133 2.7366 7.6952 4.4475 10.182 2.618 3.8052 2.9545 4.932 2.1246 7.115-1.0051 2.6436-1.442 2.921-6.2662 3.978-5.2046 1.1404-3.3131 3.5645 2.7814 3.5645 9.1466 0 8.5637 4.551-0.90971 7.1019-9.9602 2.682-16.069-2.4727-10.76-9.0791 4.0017-4.9796 3.9903-5.0228-1.3254-5.0228-4.0423 0-4.7027-0.35423-6.9918-3.75-5.2284-7.7561-24.77-26.222-30.539-28.858-6.7541-3.0856-9.9891-4.7929-18.505-9.7654-5.0248-2.9342-8.2528-4.0592-13.316-4.641-3.6761-0.42236-7.8987-1.2472-9.3835-1.833-4.1786-1.6486-45.435-2.67-50.3-1.2453-2.2 0.64419-7.6145 1.5657-12.032 2.0478-14.76 1.62-24.36 5.73-41.45 17.76-7.9172 5.5742-19.893 17.788-21.714 22.145-4.5408 10.868-10.731 13.197-14.994 5.6428-2.4483-4.3389-2.3767-6.3114 0.57365-15.812 2.6344-8.4835 1.7516-18.507-1.7015-19.319-4.971-1.1687-10.473-8.7374-13.586-18.689-1.0203-3.2616-5.1058-1.7547-4.935 1.8201 0.22247 4.6567 1.9618 10.248 3.7415 12.028 0.88835 0.88835 1.6152 2.012 1.6152 2.4969 0 0.48494 2.1375 3.2022 4.75 6.0383 5.1136 5.5513 5.9216 7.6365 2.75 7.0969-3.6772-0.62559-7.003-4.8511-10.554-13.41-0.62763-1.5125-1.4925-2.75-1.922-2.75-0.42947 0-1.3431-1.3573-2.0302-3.0162-0.98873-2.387-1.5341-2.7799-2.6145-1.8832-1.4565 1.2088-0.92704 8.5237 0.74903 10.349 0.47968 0.5225 0.87214 2.0598 0.87214 3.4161 0 1.3564 0.66883 3.1789 1.4863 4.05 7.5146 8.008 8.3841 9.5359 5.957 10.467-2.24 0.86-6.44-4.05-6.44-7.53 0-1.8-0.52-2.85-1.43-2.85-0.78572 0-2.1357-0.70714-3-1.5714-1.3159-1.3159-1.5714-1.3358-1.5714-0.12244 0 3.0272-2.9547 4.2036-4.6127 1.8364-3.5557-5.0765-4.4126 1.4345-1.8227 13.849 0.8596 4.1204 2.2092 8.2059 2.9992 9.0787 0.78995 0.87289 1.4363 2.0299 1.4363 2.5712 0 2.53 11.859 10.166 13.398 8.6269 2.0743-2.0742 0.43579-7.0424-3.0839-9.351-4.4186-2.8982-9.4715-10.786-9.6706-15.097-0.20969-4.5388 2.0993-4.7084 2.9421-0.216 0.78354 4.1766 4.1823 8.4705 9.1205 11.522 1.8116 1.1196 3.2938 2.6385 3.2938 3.3752 0 1.9436 8.7764 10.421 11.33 10.944 1.1935 0.24441 4.3075 0.72153 6.92 1.0603 4.1783 0.54175 4.75 0.90513 4.75 3.0194 0 3.9533-3.2152 4.9428-11.178 3.4403-3.7578-0.70904-7.0025-1.104-7.2105-0.87777-0.98703 1.0738 1.6125 5.046 3.8619 5.9012 2.8889 1.0984 3.389 3.0214 0.77684 2.9874-0.9625-0.0125-5.1853-3.1007-9.3841-6.8625s-8.772-7.1253-10.163-7.4744c-2.76-0.69-9.7-9.35-9.7-12.1 0-1.0736-0.63786-1.5637-1.75-1.3445-2.4305 0.47892-1.7657 8.1852 1.0326 11.97 2.445 3.3071 1.5941 4.935-1.2392 2.3708-2.7485-2.4874-4.772-1.3381-7.0657 4.0129-1.9945 4.653-1.5496 7.7328 1.3931 9.6435 0.58924 0.38259 0.74963 1.0173 0.35643 1.4105s-1.5052 0.0361-2.471-0.79362c-3.0209-2.595-5.4164-2.9775-7.4008-1.1817-2.6568 2.4043-2.6131 2.4876 5.647 10.775 11.69 11.728 14.498 12.37 14.498 3.3171 0-9.4417 5.797-11.106 8.8792-2.55 1.1848 3.2892 4.2963 5.0725 7.4633 4.2776 2.34-0.59 14.66 9.22 14.66 11.66 0 2.1367-4.9867 0.59557-8.8935-2.7485-5.6871-4.868-8.825-3.077-4.6126 2.6326 3.349 4.5393 1.7523 6.0606-2.7537 2.6236-5.1355-3.917-7.5561-2.7144-6.1126 3.0369 0.58354 2.325 0.40042 2.4716-2.7118 2.1705-2.9791-0.28813-3.4225-0.734-4.1271-4.1502-0.83-4-5.58-9.67-8.11-9.67-0.80846 0-1.729-0.675-2.0455-1.5-0.31658-0.825-1.1522-1.5024-1.857-1.5054-0.70476-0.003-3.4501-2.253-6.1007-5-5.5499-5.7518-9.2307-6.6356-10.277-2.4678-0.85252 3.3967 6.5595 13.974 18.5 26.4 8.0631 8.3911 8.4352 13.073 1.0391 13.073-2.9777 0-4.099-2.1677-1.8426-3.5623 1.4891-0.92034 0.39105-5.9165-1.8195-8.2785-0.97969-1.0468-4.6764-5.1109-8.2149-9.0312-11.261-12.477-14.932-9.2756-5.3164 4.6362 3.1625 4.5754 6.2 9.096 6.75 10.046 0.55 0.94984 2.0125 2.7312 3.25 3.9585 2.6618 2.6399 2.8455 4.0658 0.63305 4.9147-1.0268 0.39402-2.3151-0.25613-3.5299-1.7814-3.5384-4.4429-13.982-18.311-14.671-19.481-0.37523-0.63752-1.697-1.4741-2.9372-1.8591-4.0298-1.2509-3.8117 2.0124 0.51483 7.7006 2.191 2.8805 5.2427 7.2623 6.7815 9.7373 4.6331 7.4515 7.9203 12.471 8.5137 13 0.30843 0.275 1.3222 1.6126 2.2528 2.9725 2.9007 4.2387 2.2668 4.9423-3.8809 4.3078l-5.573-0.57518 0.68426 3.6474c0.74725 3.9832-0.0749 4.5094-3.8541 2.467-11.727-6.3377-15.541 1.9532-5.1111 11.111 5.3074 4.66 11.185 3.7752 6.8371-1.0292-1.4739-1.6287-1.3647-1.873 1.5-3.3544 1.6994-0.87877 3.0898-2.1859 3.0898-2.9047 0-9.0407 15.84-9.571 23.669-0.79241l3.1688 3.5531 3.5045-1.8873c2.91-1.5672 3.7698-1.6672 5.0682-0.58953 0.92068 0.7641 2.5971 1.0384 4.0767 0.66705 2.2683-0.56932 2.513-0.33681 2.513 2.3883 0 2.2028 0.47315 3.0232 1.75 3.0344 4.2388 0.0371 4.437 1.5717 0.76991 5.9609-3.2643 3.9072-19.247 35.059-21.048 41.024-0.41505 1.375-2.6753 6.55-5.0229 11.5-7.5274 15.872-8.5493 19.316-8.5493 28.812 0 16.131 0.323 16.639 11.863 18.647 3.1552 0.54891 10.755 2.0949 16.89 3.4356 6.134 1.3407 13.784 2.7383 17 3.1059 3.216 0.36758 8.0972 1.7111 10.847 2.9856 2.75 1.2745 6.4454 2.8591 8.2119 3.5213 13.204 4.9498 5.9392 24.886-10.908 29.934-3.08 0.92-3.79 1.6-3.79 3.64v2.5099l-10.25-0.18356c-15.208-0.27235-33.393 3.9684-36.176 8.4366-4.5369 7.2826-2.175 26.622 3.9348 32.218 4.1536 3.8046 4.3946 5.6961 0.92684 7.2761-1.9094 0.86999-2.4063 1.668-1.9446 3.1227 0.34112 1.0748 0.16896 2.7973-0.38258 3.8279-0.78901 1.4743-0.41487 2.6016 1.7549 5.2878 6.3473 7.8579 7.1371 10.034 7.1371 19.666v9.0156l-4.1156 3.7182c-3.4314 3.1001-4.6159 3.6182-7.125 3.1164-1.66-0.34-3.81-0.61-4.79-0.61-0.97921 0-3.6906-1.5959-6.0252-3.5465-3.4392-2.8734-4.7857-3.4277-7.0946-2.9206-1.57 0.35-2.85 0.23-2.85-0.27 0-1.1648-6.612-4.3194-7.4005-3.5308-1.6651 1.6651 8.5637 9.4285 10.324 7.8355 3.3101-2.9956 4.3253 1.182 1.0766 4.4306-2.875 2.875-5.4607 2.482-9.8683-1.5-7.4563-6.7363-7.9898-3.9141-1.2457 6.5899 4.2442 6.6105 6.6939 8.3845 18.364 13.299 8.0691 3.3978 3.8602 4.4453-5.9685 1.4854-5.0001-1.5058-4.8349-1.6338-5.6189 4.3572-0.71546 5.4669 1.2654 8.2038 6.7226 9.2881 8.4572 1.6805 13.615 3.6112 13.615 5.0964 0 2.0335-5.7887 1.1409-15.238-2.3497-7.8334-2.8937-9.7429-2.6174-15.262 2.2084l-4 3.4975 3.5 2.987c1.925 1.6429 4.175 3.0019 5 3.0201s2.85 0.74647 4.5 1.6184c4.0576 2.1442 14.984 5.493 20.5 6.2827 3.6079 0.51657 4.5 1.0383 4.5 2.632 0 3.5163-11.873 1.1495-25-4.9833-1.65-0.7709-3.675-1.6782-4.5-2.0161-0.825-0.33798-2.861-1.3792-4.5245-2.3137-25.331-14.232-27.585-13.886-10.945 1.6806 11.47 10.73 22.87 16.289 42.289 20.624 11.399 2.5442 11.704 2.688 10.786 5.0801-1.1824 3.0814-20.409-1.1469-28.932-6.3627-2.104-1.2876-7.189-3.2014-11.3-4.2528-8.6205-2.2048-7.9672-1.8704-16.106-8.2426-3.4274-2.6834-6.993-4.7319-7.9236-4.5521-2.505 0.48394 5.6196 10.082 13.82 16.327 3.6113 2.75 7.6391 6.0401 8.9507 7.3112 2.8573 2.7694 10.256 6.1888 13.391 6.1888 1.2386 0 4.7121 1.1263 7.7189 2.5028 3.3589 1.5378 9.6704 3.0929 16.368 4.0331 9.9567 1.3977 14.905 3.2987 13.152 5.0522-2.5621 2.5621-33.312-4.4904-42.887-9.8364-6.58-3.66-18.86-7.74-18.86-6.25 0 5.7988 18.482 17.019 36.5 22.159 2.75 0.78449 7.7843 2.3092 11.187 3.3882 3.4031 1.079 7.5986 1.9618 9.3233 1.9618 2.4504 0 3.061 0.38255 2.7934 1.75-0.48568 2.4814-9.1579 2.1667-18.804-0.68237-4.125-1.2183-8.7168-1.9724-10.204-1.6756-1.7046 0.34015-4.6612-0.34852-8-1.8634-11.359-5.1539-14.807-4.0647-5.2172 1.648 7.9648 4.7447 12.484 6.9947 15.921 7.9274 9.8743 2.6793 14.338 4.0619 17 5.266 1.65 0.74623 8.175 1.8929 14.5 2.5481 11.555 1.197 13.828 1.9334 12.517 4.055-2.1822 3.5308-33.554-2.9473-51.017-10.535-13.967-6.0684-13.885-2.934 0.16198 6.2592 3.6285 2.3747 8.9734 4.7505 13 5.7787 3.7609 0.96033 8.863 2.3418 11.338 3.0699 4.748 1.3968 19.085 3.3385 27.5 3.7244 3.6759 0.16857 5 0.62654 5 1.7293 0 2.4075-11.007 2.4317-22.246 0.0488-11.305-2.3969-14.207-2.6016-12.486-0.88091 2.5744 2.5744 19.007 7.8826 26.396 8.5268 7.5738 0.66027 9.3831 1.4373 8.529 3.6629-0.95323 2.4841-24.75-1.5575-31.929-5.4227-3.1316-1.686-4.3182-0.93431-1.7636 1.1172 4.3803 3.5175 17.967 9.4506 34.75 15.175 2.4208 0.82567 3.25 1.7035 3.25 3.4407 0 2.935 0.0613 2.9409-7.6238-0.72688-6.7676-3.2299-17.282-6.3688-18.213-5.4375-1.5683 1.5683 4.4278 4.8461 12.918 7.0619 5.1802 1.3519 10.919 2.9457 12.754 3.5418 1.8342 0.59608 7.3837 1.9133 12.332 2.9271 9.845 2.017 14.101 4.1034 13.194 6.4678-0.73014 1.9027-3.0728 1.8966-6.7432-0.0175-1.5853-0.82675-4.7353-1.7699-7-2.0958-2.2647-0.32595-7.0427-1.4088-10.618-2.4065-10.232-2.8552-13-3.2822-13-2.0053 0 5.687 17.502 13.759 32.481 14.98 11.136 0.90763 18.519 2.9105 18.519 5.0235 0 2.0774-3.2307 2.2914-9.9839 0.66146-6.56-1.58-17.02-2.24-17.02-1.07 0 7.039 22.359 12.081 41.649 9.3922 8.0542-1.1227 12.351-0.42351 12.351 2.0099 0 1.8572-4.949 2.4124-19.75 2.2157-16.411-0.21807-18.033 0.37318-10.229 3.7303 13.107 5.6386 33.764 8.0261 38.818 4.4864 3.4463-2.4139 9.161-1.114 9.161 2.0838 0 4.5259-28.691 4.9317-39.813 0.56301-9.3076-3.6559-9.3271-1.3663-0.0423 4.9714 10.637 7.2607 16.018 8.5529 43.061 10.34 15.651 1.0343 17.306 1.319 17.634 3.0326 0.34498 1.8048-0.2188 1.8581-12.35 1.167-15.405-0.87761-16.328 0.4195-3.4095 4.7916 14.214 4.8106 24.058 5.6098 38.539 3.1285zm74.38-89.02c0-1.1964 3.1686-3.912 8.1208-6.9598 5.6176-3.4573 14.834-11.395 24.341-20.963 10.815-10.885 16.278-13.254 8.701-3.7738-12.41 15.53-41.16 37.67-41.16 31.7zm8.25-81.71c0.22651-0.6875 2.4015-2.7094 4.8333-4.4931s6.2743-4.6029 8.5388-6.2649 5.4275-4.2526 7.0289-5.7569c9.5-8.94 12.35-10.72 12.35-7.74 0 0.825-0.675 1.5-1.5 1.5s-1.5 0.5922-1.5 1.316-1.6875 2.7473-3.75 4.4966-4.425 3.8148-5.25 4.5898c-8.8925 8.3546-22.011 16.159-20.755 12.348zm-231.89-396.06c-1.1763-1.2043-2.8256-3.5396-3.6651-5.1896-0.83949-1.65-2.4645-3.9937-3.6112-5.2082-2.0827-2.2059-2.7515-4.3329-1.3349-4.2456 0.4125 0.0254 1.5229 1.0379 2.4675 2.25 0.94464 1.2121 3.7214 4.6671 6.1706 7.6778 5.2341 6.4342 5.2134 10.08-0.0269 4.7156zm36.64-22.02c0-1.2791 1.125-3.3826 2.5-4.6743 1.375-1.2918 2.5-3.1582 2.5-4.1477 0-4.0928 11.297-14.208 15.676-14.036 3.4019 0.1333 4.5029-0.36625 7.1019-3.2224 3.2414-3.562 15.379-9.909 17.967-9.3955 5.0402 0.99968 7.0984 19.024 2.3527 20.603-1.0739 0.35733-1.2621-0.23181-0.80473-2.5188 0.85-4.25-0.17-7.28-2.46-7.28-2.8528 0-7.6154 2.7236-8.8736 5.0745-0.86415 1.6147-1.7102 1.9196-3.9566 1.4262-3.8875-0.85383-8.1694 1.5354-10.497 5.8568-1.1526 2.1403-3.3605 4.1746-5.6525 5.2082-2.0686 0.93282-5.3242 3.4371-7.2345 5.5652-4.14 4.61-8.62 5.41-8.62 1.54zm76.38-17.126c-0.33311-0.86808-0.36248-2.5082-0.0653-3.6448 0.29721-1.1366-0.0582-4.0554-0.78981-6.4864-1.2986-4.315-1.2672-4.4642 1.3223-6.2874 8.0411-5.6613 13.598-2.5862 6.688 3.7014-2.7632 2.5145-3.5996 4.1708-4.1318 8.1831-0.69881 5.2679-1.9956 7.2126-3.0235 4.5341zm37.787-7.278c-1.8328-0.22521-5.4124-1.9971-7.9545-3.9376-3.7781-2.8839-5.2239-3.4305-7.9176-2.9934-2.9797 0.48354-3.2955 0.29889-3.2955-1.9271 0-2.8284 3.9055-4.8614 7.3821-3.8428 12.966 3.7987 26.074 14.133 16.833 13.27-0.94315-0.088-3.2144-0.34429-5.0472-0.5695zm0.33-96.26c-5.74-6.212-7.88-8-9.57-8-1.0225 0-2.3249-0.87042-2.8942-1.9343-1.27-2.362-1.36-6.066-0.16-6.066 0.48312 0 2.7878-2.475 5.1216-5.5 4.7125-6.1082 7.1871-6.8729 8.8996-2.75 0.62824 1.5125 2.4024 3.4704 3.9427 4.351 5.586 3.1934 9.6138 14.937 6.4276 18.741-2.7158 3.2423-9.2493 3.885-11.77 1.1578zm168.96 571.65c1.4577-1.0659 1.7174-2.1443 1.2339-5.1237-0.60528-3.7299 1.804-10.482 4.2877-12.017 0.55786-0.34477 1.0143-1.4658 1.0143-2.4912s1.4776-3.8114 3.2836-6.191 4.3396-6.8016 5.6304-9.8266c5.1777-12.134 19.112-28.955 38.385-46.337 20.157-18.179 28.722-28.077 33.536-38.754 2.0919-4.6395 4.4995-16.558 3.6293-17.967-0.7581-1.2266-0.76149-7.8803-0.008-15.715 1.0603-11.024-4.818-29.784-12.065-38.505-2.68-3.24-2.18-5.73 1.17-5.73 2.7322 0 8.3129 6.3721 9.9112 11.317 0.56591 1.7507 1.4789 3.1512 2.0289 3.112 1.7061-0.12133 1.7566-3.4878 0.0801-5.3404-1.0942-1.2091-1.402-2.7289-0.97997-4.839 0.41474-2.0737 0.0337-4.0608-1.1693-6.0973-2.679-4.5353-0.67252-6.6978 4.2905-4.6241 7.106 2.9691 8.8183-0.002 2.7787-4.8206-5.7227-4.5662-4.434-12.288 1.3323-7.9832 2.7034 2.0184 8.7202 9.6016 9.74 12.276 0.31461 0.825 0.99606 2.175 1.5143 3 0.51826 0.825 1.4298 2.7375 2.0257 4.25 1.3371 3.394 2.8877 3.576 2.8877 0.33898 0-4.1901-4.0387-13.172-8.1711-18.173-3.1838-3.8528-3.8514-5.3335-3.3224-7.3687 0.36412-1.4008 0.73662-6.3269 0.82777-10.947l0.16572-8.3999-7-2.8446c-9.7243-3.9517-15.194-3.6041-10.476 0.66566 4.1631 3.7676 2.6556 6.1463-4.2736 6.7435-9.9625 0.8586-18.748 5.764-14.75 8.2352 2.1743 1.3438 0.97232 5.4193-2.3444 7.9491-4.0298 3.0737-6.0265 3.1909-9.3827 0.55089-3.2394-2.5481-5.8405-2.5212-11.817 0.12244-10.999 4.8655-30.697-0.0348-38.68-9.6224-2.7476-3.3-6.8888-6.9792-9.2027-8.1761-4.2826-2.2151-9.677-7.6507-12.811-12.909-0.95566-1.6034-3.7825-6.2403-6.2819-10.304-6.6234-10.77-10.537-24.437-11.343-39.611-0.51517-9.7004-0.92392-12-2.1329-12-3.6188 0-6.8749 26.146-5.4795 44 1.5723 20.117 0.54084 43.532-2.1176 48.068-4.2069 7.1786-1.3422 7.5021 8.2532 0.93197 7.5477-5.168 8.9536-5.4412 10.503-2.041 1.7638 3.8712-0.64707 6.3906-15.876 16.591-7.5832 5.0792-14.545 9.8884-15.471 10.687-0.92573 0.79863-5.8552 2.7601-10.954 4.3588-15.03 4.71-48.87 24.9-48.87 29.16 0 3.546 4.539 4.3421 10.293 1.8053 2.8637-1.2625 11.057-3.5459 18.207-5.0744 21.695-4.6376 25.004-5.6154 31.724-9.3735 3.5574-1.9894 7.3476-3.6171 8.4226-3.6171 3.3642 0 7.3372 2.3914 7.3455 4.4213 0.004 1.0567 0.64119 2.6317 1.4153 3.5 1.3378 1.5005 1.9467 4.4783 1.7032 8.3287-0.19579 3.0955-2.5532 1.7987-4.6107-2.5362-1.3422-2.8278-2.7401-4.3189-4.25-4.5333-3.4552-0.49072-2.7498 1.9322 1.8537 6.3666l4.1037 3.953-0.54782 8.1485c-0.30131 4.4816-1.248 9.8241-2.1037 11.872-3.0516 7.3035-1.2422 9.6984 3.7981 5.0272 2.375-2.2011 2.646-3.168 2.646-9.441 0-7.6673 1.544-10.368 2.5071-4.3846 1.3325 8.2778 1.4097 8.4359 3.7762 7.7336 8.7036-2.5827 4.834-21.351-7.0375-34.132-4.4462-4.7872-1.5143-11.771 5.7542-13.707 1.375-0.3662 4.975-1.3675 8-2.2251s12.025-1.9747 20-2.4824 17.296-1.1978 20.714-1.5335c10.59-1.0403 14.292 1.6399 9.5364 6.9049-1.137 1.2589-1.75 3.5634-1.75 6.5788 0 6.1824-2.4805 6.3818-3.9569 0.31812-1.3518-5.552-2.801-6.283-9.4759-4.7797-7.2775 1.639-7.9316 2.9588-4.7558 9.5947 2.3657 4.9431 2.4581 5.6239 1.1788 8.6857-2.4732 5.9192-5.7726 2.8471-4.7923-4.462 0.92838-6.9216-4.769-13.28-10.088-11.258l-2.6596 1.0112 2.5246 4.9821c1.9093 3.7679 2.5246 6.5257 2.5246 11.315 0 9.2128 3.223 11.356 8.7559 5.8235 5.43-5.44 14.24-6.55 14.24-1.8 0 3.8747-1.5352 4.9705-24.862 17.746-2.5509 1.397-8.463 5.0015-13.138 8.01-4.675 3.0084-13.742 8.0752-20.149 11.259-9.3806 4.6621-11.887 6.3638-12.871 8.7384-1.3109 3.1648-9.8151 9.0872-15.931 11.094-7.563 2.4821-20.935 13.517-24.578 20.282l-1.9257 3.5758 2.6531 2.6531c3.0637 3.0637 11.013 2.3179 17.204-1.6141 1.7034-1.0818 5.7263-3.3605 8.9397-5.0639 5.6629-3.0019 23.132-15.043 25.157-17.341 7.4282-8.4264 12.512-9.5756 14.971-3.3844 0.9287 2.3375 2.5029 5.15 3.4983 6.25 2.6352 2.9122 6.6513 11.415 7.4393 15.75 1.0355 5.6968 6.591 4.7016 6.591-1.1807 0-3.5356-3.8477-12.889-7.0214-17.069-7.6574-10.085-7.3039-13.884 1.8369-19.74 7.37-4.73 43.79-23.26 45.7-23.26 0.85901 0 3.326-0.9 5.4822-2 4.6676-2.3812 7.847-2.5624 8.6413-0.49228 0.90918 2.3693-2.0336 5.9139-6.7871 8.1749-29.57 14.066-31.18 15.085-30.227 19.14 0.57237 2.4372 4.2986 12.123 5.0307 13.076 0.59809 0.77893 8.0185-4.9694 10.168-7.8768 1.3561-1.8342 2.7516-2.7374 3.6795-2.3814 2.2806 0.87513 1.7845 5.291-1.0052 8.9485-1.375 1.8027-2.5 4.0368-2.5 4.9647 0 2.9978-5.3446 10.371-7.5462 10.41-2.158 0.0385-6.832 4.9956-23.756 25.195-5.3725 6.4123-12.217 13.751-15.21 16.308-3.9829 3.4027-5.767 5.7731-6.6544 8.8413-0.66687 2.3057-2.2736 5.4898-3.5706 7.0757s-3.2493 4.5109-4.3385 6.5c-2.1807 3.9823-3.3752 5.8398-9.7244 15.122-6.3923 9.3456-4.6074 12.931 5.004 10.051 4.3576-1.3056 14.075-13.009 20.044-24.142 5.0004-9.3251 7.9404-12.977 15.961-19.827 4.5599-3.8941 8.871-7.7571 9.5802-8.5844 3.3216-3.8749 8.8964-1.215 9.8568 4.703 0.76834 4.7347-2.0277 7.2445-3.7818 3.3946-1.3056-2.8654-2.057-3.1042-4.9302-1.5666-1.26 0.67-1.94 2.09-1.94 4.06 0 4.1-1.65 6.9-4.07 6.9-2.8859 0-3.4081 2.4799-1.4092 6.6922 1.4705 3.0989 1.5547 4.2006 0.53621 7.0172-0.6645 1.8377-0.92062 4.6505-0.56915 6.2507 0.70361 3.2036-2.0867 7.0398-5.1204 7.0398-1.3974 0-1.5339-0.84165-0.95983-5.9162 1.0937-9.6672-2.764-9.4497-5.8398 0.3292-0.9323 2.964-2.5672 6.1784-3.6331 7.143-2.5652 2.3215-2.4507 4.1537 0.31196 4.9913 1.2375 0.37517 3.4621 1.9805 4.9436 3.5674 3.0196 3.2344 8.9346 3.9744 12.27 1.5352zm26.203-64.317c-0.36-0.36-0.66-1.71-0.66-3 0-2.9134-2.2785-3.046-5.7271-0.33333-5.8118 4.5716-7.742 1.1835-3.0788-5.4045 1.8183-2.5688 4.3171-6.1162 5.5529-7.883 1.2358-1.7669 2.9534-4.1125 3.8169-5.2125 0.86347-1.1 4.1273-6.0193 7.253-10.932 3.1257-4.9125 9.0762-12.562 13.223-17 4.1472-4.4375 9.0749-10.225 10.951-12.861 4.234-5.951 7.3406-6.2113 7.8077-0.65413 0.3042 3.6193-0.33227 4.5751-14.735 22.129-2.4173 2.9462-2.4222 2.9964-0.622 6.3392 1.8787 3.4885 1.494 6.9542-0.69193 6.2332-0.68721-0.22667-1.797-1.5016-2.4663-2.8332-1.7373-3.4565-3.1634-3.0298-6.949 2.079-4.5939 6.1997-4.8024 6.8252-2.9554 8.866 2.78 3.08 1.4 12.14-1.86 12.14-1.11 0-1.52-1.08-1.52-4 0-4.1026-0.47804-4.6167-2.8791-3.0959-1.0477 0.66361-1.2123 2.2084-0.685 6.429 0.85053 6.8074-1.1604 11.609-3.7692 9.0002zm72.752 34.06c2.5796-0.98986 1.8274-4.2147-1.3686-5.8673-3.6651-1.8953-4.9648-1.9124-6.9765-0.0919-1.311 1.1864-2.896 1.2497-9.1866 0.36703-5.2576-0.73776-8.8026-0.74922-11.494-0.0372l-3.8922 1.0296 5.7356 0.10335c5.9617 0.10742 12.761 1.4448 18.764 3.6909 3.9542 1.4794 6.1217 1.6868 8.4182 0.8055zm-511.58-30.747c0.19338-1.0198-1.8962-6.4198-4.6434-12s-5.2922-11.873-5.6554-13.984c-0.50466-2.9336-2.4141-5.714-8.0984-11.792-6.8081-7.2799-7.4384-8.3099-7.4423-12.161-0.009-8.8617-15.132-26.077-22.996-26.176-2.0831-0.0264-2.4508-0.45638-2.205-2.5789 0.513-4.38-6.067-11.95-10.384-11.95h-3.5023l3.3992-3.5c5.7967-5.9687 8.7308-4.5664 24.217 11.574 4.389 4.5744 14.406 14.876 22.26 22.893 7.8537 8.0165 16.18 17.339 18.503 20.717 7.92 11.51 23.44 27.32 26.83 27.32 5.2589 0 6.0306-8.8121 1.3889-15.86-1.925-2.923-3.5-5.4817-3.5-5.6861 0-0.20441-3.6307-5.0026-8.0682-10.663-13.966-17.814-14.093-18.408-5.8155-27.256 4.9868-5.3309 6.0254-7.0138 5.624-9.1132-0.33821-1.7692 0.15374-3.1767 1.5723-4.4983 4.435-4.1318 6.0398-3.0845 25.532 16.662 16.703 16.921 18.581 18.525 20.99 17.92 5.6209-1.4108 6.1164-11.281 0.86623-17.253-1.8147-2.0641-4.8522-5.7647-6.75-8.2236s-5.1383-5.999-7.2012-7.867-5.416-5.7062-7.4513-8.5293-6.3639-8.0196-9.6191-11.548c-9.24-10.01-10.65-15.08-4.19-15.08 3.5934 0 3.8453-0.36096 5.0684-7.261 0.36667-2.0686 1.084-4.0189 1.594-4.3342 0.51002-0.31521 0.6819-1.3464 0.38195-2.2914-0.73297-2.3094 0.68568-3.8633 9.214-10.093 8.4409-6.1655 8.6247-6.6126 3.1018-7.5457-9.4204-1.5916-12.754-4.4303-9.2804-7.9035 2.0672-2.0672 5.8053-1.9825 18.929 0.42857 6.3668 1.1697 15.268 2.0082 21.443 2.0198 5.8064 0.0109 13.707 0.48555 17.557 1.0548 9.7368 1.4396 22.062-0.47644 24.217-3.7648 3.7612-5.7404-1.1237-9.6308-14.262-11.358-9.86-1.29-20.96-3.68-32.45-6.98-4.125-1.1841-10.95-2.4486-15.167-2.8098-21.547-1.8459-27.333-24.009-11.069-42.401 4.1448-4.6871 6.6493-8.6523 8.2112-13 1.2361-3.4407 4.4721-10.502 7.1912-15.692 8.9122-17.011 10.292-35.375 3.2427-43.164-2.4242-2.6787-6.409-2.5329-6.409 0.23454 0 3.7034-2.3125 10.156-5.8649 16.366-1.8879 3.3-4.53 7.9141-5.8714 10.254-3.2371 5.6461-28.922 27.735-37.669 32.395-1.7023 0.90698-5.1941 3.4988-7.7595 5.7596-3.2686 2.8805-6.1115 4.4002-9.5 5.0782-2.6596 0.5322-6.6356 1.6331-8.8356 2.4465-2.2 0.81335-5.353 1.4986-7.0066 1.5227s-4.5786 0.51222-6.5 1.0846c-8.4487 2.517-26.614 0.26731-31.395-3.8881-6.217-5.4-9.656-16.2-6.1-19.15 5.7164-4.7442-4.8826-7.7867-15.072-4.3264-8.6213 2.9278-11.675 5.5508-17.177 14.756-0.96312 1.6112-3.377 4.7612-5.3641 7-11.181 12.597-15.637 23.963-10.247 26.139 2.1228 0.85711 4.8598 2.7591 6.0822 4.2267 2.1901 2.6295 2.2651 2.6431 5.1543 0.93642 3.8507-2.2747 4.512-2.2029 7.8028 0.84691 2.0277 1.8792 3.4943 2.4364 5.4062 2.0541 1.4916-0.29832 3.5205 0.10347 4.7023 0.93119 2.7824 1.9489 10.44 2.9198 12.851 1.6294 1.8193-0.97367 15.256 11.657 18.767 17.641 1.234 2.11-4.835 7.17-8.59 7.17-1.5186 0-4.6856 0.85694-7.0378 1.9043s-6.1646 2.6796-8.4719 3.6271c-2.3073 0.94755-5.1983 2.7906-6.4243 4.0957-2.568 2.73-5.881 3.15-5.881 0.73 0-1.3744-0.75298-1.5327-4.7096-0.99041-5.9476 0.81521-7.0423 1.8529-5.33 5.0524 1.0837 2.0249 1.0938 4.0426 0.05641 11.27-1.4827 10.33-2.2916 32.344-1.2435 33.844 0.39967 0.57212 3.8767 3.1035 7.7267 5.6253s8.1742 5.8787 9.6094 7.4598c1.4351 1.5811 7.1943 7.3266 12.798 12.768 6.6882 6.4943 11.92 12.678 15.229 18 2.7724 4.4587 6.8435 10.582 9.0468 13.607 2.2034 3.025 6.8846 11.423 10.403 18.663 5.1983 10.697 7.0539 13.569 9.9052 15.332 1.9297 1.1926 3.5085 2.5391 3.5085 2.9922 0 6.403 16.723 14.522 17.835 8.6588zm-9.3673-74.382c-3.8677-3.7202-8.8177-9.3998-11-12.621-2.1823-3.2215-6.1142-8.2242-8.7374-11.117-4.095-4.52-5.542-8.52-3.076-8.52 1.5513 0 8.5909 4.4452 12.507 7.8974 5.4867 4.8372 7.5884 5.1912 8.0301 1.3526 0.43828-3.809 5.8164-4.7489 5.8164-1.0164 0 1.3015-0.45785 2.8243-1.0174 3.3839-2.1528 2.1528-2.8997 7.2064-1.2656 8.5626 1.8275 1.5167 9.2755-6.1884 9.2803-9.6008 0.006-4.6142-10.961-12.772-16.202-12.051-5.0744 0.6979-5.7266 0.0814-3.774-3.5671 0.85952-1.606-0.01-3.0302-5.5-9.013-6.7229-7.3258-6.9367-7.7006-5.9138-10.366 1.2146-3.1651 6.8794-0.91451 12.893 5.1223 3.4862 3.4996 28.024 22.681 34.218 26.749 6.0955 4.0031 5.8699 11.547-0.34535 11.547-2.3187 0-6.3727 2.297-6.3727 3.6108 0 0.70939-0.73818 1.7029-1.6404 2.2078-0.92423 0.51723-1.3219 1.4333-0.91097 2.0982 0.55976 0.90571 1.0632 0.90319 2.1646-0.0108 2.0634-1.7125 2.9347-0.31111 1.0059 1.6178-0.93244 0.93244-1.619 3.2549-1.619 5.4765 0 3.7103-0.12399 3.8528-3.25 3.7359-1.7875-0.0669-4.375 0.19641-5.75 0.5851-2.1458 0.6066-3.4962-0.25153-9.5321-6.0573zm14.242-9.9372c4.4975-4.8987 5.5545-8.3497 2.5405-8.295-3.4879 0.0634-10.02 8.5193-8.8786 11.494 0.87007 2.2674 1.7081 1.8445 6.3381-3.1986zm7.6279-38.139c-3.2106-2.6466-7.2824-5.8148-9.0484-7.0403-3.1825-2.2085-5.4871-5.0838-13.318-16.616-6.0761-8.9479-3.8907-13.759 3.6407-8.0142 2.0836 1.5892 4.2906 2.4799 5.4158 2.1857 1.0445-0.27314 2.4207 0.13193 3.0583 0.90015 1.8494 2.2284 2.776 1.6509 3.4943-2.1779 0.89859-4.7899-0.98889-6.8217-3.4928-3.7599l-1.7708 2.1654-2.1952-4.5184c-3.4459-7.0927 6.49-10.427 17.439-5.8516 1.923 0.80349 6.8792 1.7674 11.014 2.1421 14.522 1.316 16.244 12.397 1.9262 12.397-0.73357 0-1.5408 0.5625-1.7938 1.25-0.25303 0.6875-0.78931 0.0125-1.1917-1.5-1.1181-4.2021-7.2056-4.0296-8.821 0.25-1.466 3.8839-3.0488 3.8718-2.4778-0.019 0.54304-3.6999-1.464-5.8501-3.7161-3.981-0.825 0.68469-1.5 2.2597-1.5 3.5s-0.69728 2.8338-1.5495 3.5411c-1.8608 1.5444-1.6195 9.0834 0.31112 9.7184 0.6945 0.22841 1.8635-1.0166 2.6007-2.7698l1.3391-3.1848 1.1996 6.0976c1.1718 5.9562 4.0628 8.5646 5.3729 4.8476 0.2444-0.69345 1.4626 0.46043 2.7361 2.5916 2.049 3.429 2.655 3.7996 5.6428 3.4508 1.841-0.21492 3.3472-0.28542 3.3472-0.15667 0 3.5341-6.3163 9.3519-10.163 9.3606-0.91441 0.002-4.2894-2.1617-7.5-4.8083zm-58.987-53.43c-6.3476-4.6842-9.9604-10.635-7.4128-12.209 0.89041-0.5503 7.7193 6.0836 10.821 10.512 2.2884 3.2672 0.15715 4.3283-3.4085 1.697zm76.157-5.68c-1.1-0.44429-5.2901-1.3611-9.3113-2.0373-11.46-1.93-16.92-9.03-6.95-9.03 2.5416 0 2.8114-0.2272 1.7659-1.487-4.3921-5.2921 18.086-20.207 24.932-16.543 3.6354 1.9456 0.9321 4.4537-12.338 11.447-9.3459 4.9251-10.267 7.1945-2.5025 6.1645 4.984-0.66115 5.1804-0.58868 8.4584 3.1212 5.7699 6.5301 3.4138 11.383-4.0609 8.3635zm365.03 173.88c1.4421-2.7888 1.4369-3.6766-0.0602-10.25-3.7834-16.611-9.8893-24.271-16.102-20.2-2.966 1.9434-3.0014 3.3056-0.11502 4.4276 6.3893 2.4836 10.75 10.825 10.75 20.563 0 3.9488 0.3 7.4797 0.66667 7.8464 1.4538 1.4538 3.3585 0.51868 4.8609-2.3866zm17.071-23.528c4.0317-9.6493-8.898-27.201-13.586-18.443-0.6319 1.1807-0.46388 2.3265 0.5316 3.6251 3.3317 4.346 6.8518 10.163 8.5614 14.149 2.2161 5.166 2.5903 5.2217 4.4926 0.66879zm11.367-9.701c1.5471-2.7909 1.1039-3.7744-2.2339-4.9576-0.42252-0.14978-1.052-2.6687-1.3989-5.5976-0.74321-6.2752-3.9944-8.6838-7.4727-5.536-2.4457 2.2133-2.348 3.5657 0.56769 7.8622 1.3353 1.9677 2.7418 5.0252 3.1256 6.7944 1.1901 5.4865 4.7809 6.1815 7.4122 1.4346zm-356.19-46.47c-0.21233-0.4125-1.1433-2.4074-2.0688-4.4331-2.77-6.06-8.71-8.62-8.71-3.75 0 2.9346 5.8316 8.9278 8.6869 8.9278 1.3638 0 2.306-0.3375 2.0937-0.75zm327.15-2.1197c3.58-6.69-6.04-29.63-12.43-29.63-4.6921 0-5.1744 3.2189-1.0545 7.0371 1.2331 1.1428 3.0636 4.302 4.0677 7.0204s2.3845 5.6176 3.0674 6.4426c0.68292 0.825 1.5578 3.6375 1.9441 6.25 0.74243 5.0206 2.6075 6.24 4.4056 2.8803zm10.095-4.6954c2.92-7.65-4.49-26.43-10.42-26.43-2.2714 0-1.977 2.7381 0.9054 8.4195 1.3727 2.7057 2.4958 5.9591 2.4958 7.2298s0.631 4.0069 1.4022 6.0805c0.77123 2.0736 1.6571 4.5577 1.9686 5.5202 0.81888 2.5301 2.5269 2.1491 3.6539-0.8151zm-343.29-27.33c0.58128-11.282-0.19219-12.488-4.07-6.3453-2.855 4.5226-2.9734 11.591-0.26345 15.727 2.7279 4.1633 3.7495 1.9517 4.3334-9.3812zm479.52-6.4836c0.76285-0.76286 1.9594-4.0254 2.6591-7.25 0.69965-3.2246 1.9076-7.7912 2.6844-10.148 3.1953-9.6945 0.66728-19.72-7.0472-27.948l-5.0404-5.3757-4.2639 1.8042c-3.6867 1.56-4.3466 2.3093-4.8748 5.5353-0.33598 2.0521-1.2297 4.2447-1.9861 4.8724-1.994 1.6549-1.7292 2.7293 1.6103 6.5328 1.642 1.8702 3.2706 4.6296 3.619 6.132 0.34838 1.5024 1.1837 3.6317 1.8562 4.7317 1.477 2.4158 4.1907 11.499 5.0769 16.992 0.95762 5.9367 2.6607 7.1665 5.7066 4.1206zm-459.95-11.37c1.7602-0.96179 5.2253-2.4851 7.7003-3.3851 3.4437-1.2523 4.096-1.8033 2.7787-2.3473-1.7629-0.72806-14.26 2.821-16.529 4.694-3.6274 2.9948 1.0119 3.7911 6.0497 1.0384zm-157.51-26.32c9.7374-1.0699 13.752-2.7911 11.58-4.964-0.72697-0.72697-5.0345-0.72302-14.147 0.013-7.2058 0.58202-13.466 0.99587-13.912 0.91967-4.9061-0.83879-5.6293 1.6216-1.0604 3.6074 3.9862 1.7326 5.3329 1.7651 17.539 0.4239zm520.77-5.0284c0.37233-0.60245 0.0794-2.2119-0.65092-3.5765-1.1811-2.207-1.0405-2.9976 1.2727-7.1546 2.9477-5.2974 4.3059-11.958 2.8843-14.145-1.1862-1.8248-1.1168-1.9109-4.8156 5.971-3.2678 6.9635-7.0776 11.241-11.499 12.912-3.8505 1.4546-3.4338 2.8758 1.5 5.1153 4.7075 2.1368 10.264 2.5681 11.309 0.87772zm84.05-16.65c-3.1375-5.9884-4.8836-6.9667-12.519-7.0145-8.808-0.0551-8.7948 0.10764 0.35217 4.3338 4.094 1.8915 7.7205 3.8872 8.059 4.4349 1.6925 2.7386 5.5899 1.0742 4.1079-1.7542zm-48.898-7.2998c4.61-1.61 6.77-7.95 2.71-7.95-6.2015 0-11.005 7.4046-5.8188 8.9696 0.0554 0.0167 1.4559-0.44199 3.1122-1.0194zm-8.876-10.798c4.2433-3.9638 4.8733-7.2669 2.2086-11.579l-2.1558-3.4881 2.0853-7.002c2.4048-8.0749 4.5021-10.859 12.871-17.084 8.386-6.2378 8.8362-9.0445 2.0167-12.571-4.0433-2.0909-7.0184-1.2246-10.223 2.9766-1.4398 1.8876-4.1787 3.9472-6.0866 4.5769-5.0479 1.666-7.9717 6.875-7.8298 13.95 0.74938 37.357 0.51934 36.38 7.1134 30.22zm47.994-0.0519c-0.65247-1.0448-2.6952-2.6191-4.5393-3.4985-4.3088-2.0547-5.1797-4.2914-2.4228-6.2224 2.5395-1.7787 2.762-3.9236 0.49722-4.7927-3.8908-1.493-15.17 2.4325-19.131 6.6582l-2.2655 2.4168 2.0387 1.845c1.992 1.8027 3.0557 1.916 13.128 1.3981 3.4361-0.17667 5.3769 0.31414 7.5 1.8966 3.7852 2.8214 6.8815 2.9994 5.1949 0.29875zm-527.06-39.6c4.6436-4.675 8.8262-8.5 9.2948-8.5s3.4613-3.1164 6.6504-6.9252c10.696-12.775 11.573-19.942 2.257-18.452l-3.7013 0.59186-0.72898-5.8346c-1.9607-15.693-11.584-22.824-20.766-15.388l-2.1226 1.7188 2.2765 1.8947c12.27 10.212 14.229 15.81 9.6706 27.634-1.3275 3.4433-2.6647 7.4128-2.9715 8.8212-1.1972 5.4953-6.0618 10.529-11.687 12.094-7.2865 2.027-8.3791 4.1015-4.1617 7.902 4.9732 4.4816 6.5709 3.9264 15.991-5.557zm-26.841 6.2554c6.4494 0.25415 9.2568-7.8409 3.7818-10.905-0.78932-0.44173-2.0235-2.2237-2.7427-3.9599-0.96739-2.3355-2.6688-3.7588-6.5398-5.4707-3.1122-1.3763-6.3544-3.7852-8.0017-5.9448-3.327-4.3619-6.9745-4.2244-14.373 0.54204l-4.4594 2.8731 2.7746 1.0549c1.523 0.58 3.642 1.05 4.706 1.05 3.1897 0 5.9345 3.582 5.9386 7.75 0.0045 4.5267 3.2579 10.25 5.8266 10.25 1.0228 0 2.6886 0.91587 3.7016 2.0353 1.1894 1.3142 2.3956 1.7715 3.405 1.2907 0.8597-0.40951 3.5501-0.66626 5.9787-0.57055zm482.88-6.2698c1.8101-6.7678 1.5594-8.4013-1.4658-9.5515-4.2496-1.6157-5.4681 0.38081-4.0076 6.5658 2.0825 8.8187 3.6801 9.6902 5.4733 2.9856zm-511.3-8.49c0-1.879-8.4548-2.6298-11.466-1.0182-3.8931 2.0836-2.164 3.1153 4.716 2.8139 5.2019-0.22787 6.75-0.63971 6.75-1.7957zm92.929-1.5714c1.9269-1.9269 1.9344-2.3155 0.12921-6.636-3.27-7.83-5.56-7.06-5.56 1.88 0 6.822 1.7944 8.396 5.4286 4.7619zm-42.151-10.666c0.59901-3.8448-1.6855-9.375-4.4937-10.878-2.9793-1.5945-3.2207-0.41791-0.89847 4.3791 1.163 2.4024 2.1145 5.5008 2.1145 6.8855 0 5.0304 2.4793 4.7378 3.2777-0.38682zm53.72-1.69c0-0.88945-1.4175-3.3369-3.1501-5.4387-1.7325-2.1019-3.6975-5.414-4.3666-7.3602l-1.2165-3.5387-0.65356 4.3824c-0.5676 3.8059 0.45108 13.4 1.5163 14.281 3.5058 2.8987 7.8705 1.6089 7.8705-2.3258zm413.55-9.1341c2.1741-2.2337 6.3457-5.434 9.2702-7.1119 7.8396-4.4978 8.7187-8.7746 3.5102-17.077-3.855-6.1449-12.149-2.7846-21.199 8.5887-6.0214 7.5671-6.5002 10.548-2.1875 13.619 1.6175 1.1517 3.2228 2.9824 3.5674 4.0681 0.93153 2.935 2.6451 2.4269 7.0388-2.0872zm-406.28-2.5386c0.6648-0.66481-1.2428-5.3989-2.177-5.4026-0.32 0-2.17-1.35-4.09-3-4.0646-3.4785-5-3.6947-5-1.1558 0 3.5042 9.3704 11.452 11.266 9.556zm400.05-22.478c2.8261-2.8855 5.7226-4.9286 7-4.9375 3.8688-0.0272 5.464-1.6273 3.5406-3.5513-1.9694-1.9699-5.4983-1.153-6.3293 1.4652-0.31465 0.99137-2.3209 2.3208-4.4775 2.9669-3.9949 1.1969-9.0547 6.1025-9.0547 8.7787 0 2.6334 4.2019 0.50471 9.3209-4.7219zm-420.94-6.2865c-0.10896-5.206 0.0707-5.7515 1.75-5.3124 1.34 0.36 1.87-0.04 1.87-1.41 0-1.09-0.69-1.91-1.61-1.91-2.0278 0-5.0542-3.6939-8.8939-10.856-4.1827-7.8015-7.7353-9.6575-11.095-5.7964-2.8665 3.2946-2.5696 5.3045 1.5733 10.652 2.6322 3.3975 6.0591 8.8549 11.812 18.811 2.5152 4.3528 4.7242 2.3423 4.5878-4.1754zm23.18-5.7007c3.8097-4.2097-5.2845-15.638-9.2715-11.651-1.5382 1.5382-1.5361 1.7835 0.0295 3.5135 0.92574 1.0229 1.6832 2.4052 1.6832 3.0716 0 4.472 5.0396 7.8494 7.5588 5.0658zm45.69-187.41c3.27-2.879 3.43-4.079 0.75-5.516-2.1994-1.1771-3.0198-12.252-1-13.5 0.55-0.33992 1.0028-1.604 1.0062-2.809 0.003-1.205 0.67839-3.4799 1.5-5.0553s1.4938-3.4879 1.4938-4.25c0-3.9035-4.3559 1.3612-5.4842 6.6284-0.41 1.917-1.34 4.611-2.06 5.986-6.1771 11.762-3.4813 24.92 3.7938 18.516zm115.81-4.5778c2.9135-2.9135 2.1365-5.3695-1.8197-5.7519-2.1966-0.21232-3.2754-0.85718-3.3462-2-0.0574-0.92765-0.21057-3.3923-0.34042-5.4771-0.26218-4.2092-1.7398-6.3316-3.6052-5.1787-2.2878 1.414-0.43002 16.591 2.2869 18.683 2.9601 2.2785 4.3261 2.2234 6.8246-0.27505zm-82.151-19.642c3.5119-7.7078 2.1092-18.427-2.8956-22.127-2.98-2.2032-4.0425-1.3399-2.1088 1.7134 1.3484 2.129-2.8851 9.7511-6.2172 11.194-3.3102 1.433-8.1429 7.3805-7.2158 8.8805 1.482 2.3979 5.141 0.92827 9.1509-3.6755 5.1909-5.9598 7.9078-5.0118 6.8004 2.3728-0.73794 4.9209 0.59198 5.7996 2.4861 1.6426zm77.935-7.747c1.18-6.053-2.29-14.122-6.34-14.742-3.3289-0.51037-3.0648 3.8735 0.65513 10.877 3.2953 6.2044 5.0115 7.3701 5.6908 3.8657zm128.28-8.2205c1.4458-0.29189 2.9348-0.03538 3.309 0.57003 1.06 1.704 6.57 1.382 6.57-0.382 0-3.8362-5.6429-8.0231-10.562-7.8366-4.7585 0.18045-9.447 3.0013-6.6883 4.024 0.6875 0.25489 1.25 1.5991 1.25 2.9871 0 1.9947 0.36678 2.3818 1.75 1.8466 0.9625-0.37236 2.9329-0.91584 4.3787-1.2077zm-11.97 808.81c-5.64-11.09-6.49-23.14-1.63-23.14 2.3741 0 2.482 0.26918 2.5047 6.25 0.0169 4.4576 0.76287 7.9707 2.601 12.25 4.8699 11.337 1.9282 15.271-3.4724 4.6437zm-10.531 2.7265c-0.89-1.27-1.62-2.74-1.62-3.26 0-0.52196-1.1847-3.9093-2.6328-7.5275-4.8515-12.122-2.47-28.769 5.0031-34.971 4.7513-3.9432 7.7423 1.183 4.06 6.9583-3.7218 5.8373-4.2595 13.709-1.8834 27.571 2.0265 11.823 0.79643 16.547-2.9253 11.233zm161.08-196.93c-1.2301-4.7038 14.55-19.643 17.853-16.902 3.6586 3.0364-3.8355 12.422-14.232 17.825-2.8857 1.4996-2.9944 1.4719-3.6207-0.92293z"/>
</svg>
