<?xml version="1.0" encoding="iso-8859-1"?>
<!-- Generator: Adobe Illustrator 19.2.0, SVG Export Plug-In . SVG Version: 6.00 Build 0)  -->
<svg version="1.1" id="Layer_1" xmlns="http://www.w3.org/2000/svg" xmlns:xlink="http://www.w3.org/1999/xlink" x="0px" y="0px"
	 viewBox="0 0 40 40" style="enable-background:new 0 0 40 40;" xml:space="preserve">
<path style="fill:#4B7A5B;" d="M34.5,33h-1.706l-2.358-4.245C30.216,28.362,30,27.863,30,26.5V18c0-0.276-4.224,4-4.5,4
	S25,22.224,25,22.5v4c0,1.088,0.452,1.659,0.609,1.813l1.77,4.712C27.164,33.08,27,33.268,27,33.5c0,0.275,0.225,0.5,0.5,0.5h3h3.85
	h0.15c0.275,0,0.5-0.225,0.5-0.5C35,33.225,34.775,33,34.5,33z"/>
<g>
	<path style="fill:#BAE0BD;" d="M7,33.5c-2.733,0-4.5-0.981-4.5-2.5c0-0.797,0.455-1.887,1.732-2.557l0.556-0.292L4.38,27.675
		C3.08,26.157,2.5,24.406,2.5,22c0-5.327,5.052-9.5,11.5-9.5c6.359,0,8.231-1.873,9.736-3.378C24.678,8.18,25.357,7.5,27,7.5h2
		c4.367,0.027,8.5,2.214,8.5,4.5c0,0.785-3.072,2.866-6.71,4.546L30.5,16.68V19c0,7.768-12.469,11.484-12.595,11.509l-1.186,0.236
		l1.003,0.671c0.043,0.028,0.184,0.102,0.395,0.205c1.828,0.898,2.675,1.5,3.063,1.879H7z"/>
	<path style="fill:#5E9C76;" d="M28.997,8c4.277,0.027,7.946,2.188,8.002,3.959c-0.254,0.674-2.923,2.518-6.419,4.133L30,16.36V17v2
		c0,6.722-10.6,10.658-12.188,11.018l-2.399,0.459l2.033,1.355c0.091,0.061,0.197,0.113,0.451,0.238
		c0.742,0.364,1.308,0.672,1.74,0.93H7c-1.991,0-4-0.618-4-2c0-0.651,0.385-1.548,1.465-2.114l1.111-0.583L4.76,27.35
		C3.526,25.909,3,24.309,3,22c0-5.047,4.832-9,11-9c6.567,0,8.603-2.037,10.09-3.525C25.01,8.555,25.565,8,27,8H28.997 M29,7
		c0,0-1.875,0-2,0c-4.611,0-2.726,5-13,5C7.5,12,2,16.265,2,22c0,2.348,0.511,4.261,2,6c-1.399,0.734-2,1.968-2,3
		c0,1.891,2.058,3,5,3c3.509,0,10.666,0,15,0c0-1.219-3.766-2.844-4-3c0.651-0.125,13-4.063,13-12v-2c2.368-1.094,7-3.588,7-5
		C38,9.341,33.542,7.028,29,7L29,7z"/>
</g>
<path style="fill:none;stroke:#5E9C76;stroke-linecap:round;stroke-miterlimit:10;" d="M9.5,19.5c3.817,0.426,7,2.671,7,5
	c0,4.903-7,5.56-7,6c3.104,0,7.598,0,8.5,0"/>
<rect x="22.769" y="20" style="fill:#BAE0BD;" width="1.385" height="5.538"/>
<g>
	<path style="fill:#BAE0BD;stroke:#5E9C76;stroke-linecap:round;stroke-miterlimit:10;" d="M26.5,23.5v3
		c0,1.375,0.208,1.979,0.5,2.5l2.5,4.5h-2c-0.11,0-0.43-0.413-0.5-0.5l-4-5c-0.24-0.24-0.5-0.729-0.5-1.5v-4"/>
</g>
<g>
	<circle style="fill:#FFFFFF;" cx="27.5" cy="9.5" r="3"/>
	<path style="fill:#788B9C;" d="M27.5,7C28.878,7,30,8.122,30,9.5S28.878,12,27.5,12S25,10.878,25,9.5S26.121,7,27.5,7 M27.5,6
		C25.567,6,24,7.567,24,9.5s1.567,3.5,3.5,3.5c1.933,0,3.5-1.567,3.5-3.5S29.433,6,27.5,6L27.5,6z"/>
</g>
<circle style="fill:#36404D;" cx="28.5" cy="9.5" r="1.5"/>
<path style="fill:#5E9C76;" d="M27.5,33h4c0.275,0,0.5,0.225,0.5,0.5l0,0c0,0.275-0.225,0.5-0.5,0.5h-4c-0.275,0-0.5-0.225-0.5-0.5
	l0,0C27,33.225,27.225,33,27.5,33z"/>
</svg>
