<?xml version="1.0" standalone="no"?>
<!DOCTYPE svg PUBLIC "-//W3C//DTD SVG 20010904//EN"
 "http://www.w3.org/TR/2001/REC-SVG-20010904/DTD/svg10.dtd">
<svg version="1.0" xmlns="http://www.w3.org/2000/svg"
 width="595.000000pt" height="595.000000pt" viewBox="0 0 595.000000 595.000000"
 preserveAspectRatio="xMidYMid meet">

<g transform="translate(0.000000,595.000000) scale(0.100000,-0.100000)"
fill="#000000" stroke="none">
<path d="M4990 5671 c-89 -28 -206 -111 -325 -230 -60 -62 -86 -81 -107 -81
-63 0 -132 -51 -170 -124 -16 -31 -19 -53 -16 -100 4 -58 2 -65 -39 -132 -76
-126 -92 -171 -104 -290 -9 -99 -6 -247 7 -331 4 -29 1 -34 -35 -53 -22 -11
-48 -20 -58 -20 -24 0 -197 116 -232 155 -17 20 -40 71 -61 136 -18 57 -35
109 -37 116 -2 6 5 14 16 18 28 9 84 -26 111 -70 49 -79 154 -57 154 32 0 50
-31 73 -98 73 -67 0 -121 26 -121 60 0 34 36 50 118 50 62 0 71 3 98 29 31 32
35 50 17 84 -33 62 -86 63 -142 3 -64 -68 -129 -94 -156 -61 -19 23 -4 97 30
147 16 24 30 56 30 71 0 38 -40 77 -80 77 -35 0 -80 -38 -80 -67 0 -10 10 -41
21 -69 17 -40 20 -62 15 -98 -8 -54 -32 -70 -79 -54 -28 10 -97 83 -97 103 0
24 -46 55 -82 55 -44 0 -72 -29 -72 -76 0 -47 28 -72 87 -79 85 -9 137 -50
137 -106 0 -14 -8 -33 -18 -42 -26 -24 -87 -47 -122 -47 -70 0 -105 -86 -55
-135 42 -43 114 -22 135 39 14 44 56 86 86 86 l24 0 0 -168 c0 -176 4 -192 45
-192 16 0 34 -20 67 -73 26 -39 76 -107 112 -149 36 -43 66 -81 66 -86 0 -5
-46 -37 -102 -72 -281 -172 -645 -466 -816 -660 -131 -148 -172 -269 -172
-506 0 -133 16 -273 46 -406 9 -38 14 -72 11 -74 -2 -3 -93 -32 -202 -65 -258
-79 -301 -98 -320 -143 -8 -20 -15 -47 -15 -61 0 -23 -125 -213 -141 -214 -14
-2 -16 26 -8 74 23 126 23 130 -4 160 -20 24 -33 30 -67 30 -34 0 -47 -6 -66
-28 -34 -40 -31 -80 12 -143 24 -35 38 -68 41 -98 5 -41 3 -46 -20 -57 -23
-10 -31 -9 -63 16 -19 15 -52 49 -71 76 -39 55 -59 69 -98 69 -37 0 -62 -16
-81 -51 -33 -64 13 -129 90 -129 59 0 107 -16 145 -48 29 -24 33 -33 27 -56
-9 -37 -91 -76 -163 -76 -70 0 -115 -37 -115 -94 0 -101 131 -126 178 -33 32
63 98 117 143 117 55 0 69 -113 25 -211 -29 -64 -27 -96 6 -129 43 -43 118
-32 145 21 21 39 19 61 -9 101 -56 83 -58 158 -5 202 17 14 36 26 42 26 27 -1
94 -40 126 -74 46 -48 90 -62 130 -41 37 19 51 43 51 88 0 27 -7 41 -32 62
-28 24 -37 26 -73 20 -106 -20 -175 -3 -175 45 0 24 136 227 166 246 23 15 34
15 155 -1 73 -9 170 -15 222 -13 l91 3 23 -40 c65 -114 141 -379 163 -567 15
-130 8 -340 -14 -423 -44 -162 -120 -264 -257 -349 -100 -61 -177 -88 -270
-94 -139 -8 -225 30 -479 211 -192 138 -280 208 -444 356 -252 227 -407 359
-463 397 -126 83 -321 123 -514 105 -180 -18 -259 -39 -273 -76 -9 -25 19 -29
126 -15 175 22 349 -5 490 -76 136 -68 181 -109 425 -394 324 -378 535 -561
785 -680 158 -75 244 -95 413 -94 162 1 243 19 379 82 300 141 464 374 517
733 8 53 10 149 6 273 -6 210 -27 347 -92 598 -19 75 -35 138 -35 141 0 3 17
8 37 12 48 9 139 55 232 117 97 66 118 71 188 47 59 -20 241 -57 307 -61 33
-3 41 -7 49 -31 10 -32 -15 -89 -64 -145 -40 -45 -39 -93 0 -133 38 -37 79
-38 121 -2 32 26 32 28 25 82 -19 131 -1 196 49 189 26 -4 72 -93 82 -157 9
-59 41 -91 91 -91 42 1 63 13 81 47 29 54 1 109 -73 142 -45 20 -105 89 -105
121 0 51 99 66 199 31 41 -14 61 -16 82 -9 54 19 77 70 54 124 -27 65 -84 71
-162 17 -41 -28 -65 -37 -110 -41 -62 -5 -83 9 -83 56 0 38 48 116 96 156 39
33 44 41 44 80 0 57 -34 91 -92 91 -32 0 -45 -6 -65 -29 -23 -27 -24 -34 -18
-95 11 -109 -30 -181 -103 -181 -38 0 -96 62 -113 120 -26 85 -105 115 -160
61 -62 -62 -27 -143 68 -161 53 -9 103 -35 103 -51 0 -5 -6 -7 -12 -4 -7 2
-65 15 -130 30 -83 19 -130 35 -163 57 -45 30 -50 31 -91 20 -46 -12 -274 -17
-274 -6 0 4 41 49 91 102 223 233 348 418 553 817 68 133 120 215 130 204 17
-19 79 -160 84 -193 7 -37 15 -46 77 -89 39 -27 120 -73 182 -104 73 -36 110
-59 107 -68 -6 -14 -57 -37 -121 -54 -46 -13 -63 -34 -63 -79 0 -55 68 -90
121 -62 10 6 26 27 35 48 31 75 93 114 123 78 14 -17 1 -77 -30 -138 -24 -48
-24 -69 2 -102 29 -37 89 -37 118 0 26 33 26 54 1 104 -22 44 -27 129 -8 148
32 32 94 -8 166 -107 45 -60 136 -31 136 43 0 54 -29 77 -97 81 -79 5 -137 38
-137 80 0 40 74 85 139 85 53 0 87 17 101 50 29 71 -42 136 -111 100 -10 -6
-28 -29 -39 -51 -37 -72 -126 -103 -171 -58 -22 22 -22 21 -2 176 6 52 -20 83
-72 83 -79 0 -100 -78 -40 -150 35 -42 48 -101 25 -115 -18 -11 -239 116 -260
150 -26 42 -72 205 -66 235 55 267 108 431 160 489 12 13 89 76 171 141 160
126 194 158 218 205 20 39 42 126 62 239 13 75 20 94 49 126 67 74 75 185 19
264 l-30 43 -6 184 c-5 197 -20 274 -60 317 -17 18 -31 22 -76 21 -31 0 -67
-4 -81 -8z m-171 -275 c20 -24 -10 -76 -101 -176 -45 -50 -98 -112 -115 -137
-36 -49 -45 -83 -12 -43 64 77 171 187 198 203 l32 19 -5 -24 c-2 -14 -31 -65
-64 -114 -32 -49 -82 -130 -111 -180 -48 -87 -51 -96 -51 -163 0 -77 -15 -125
-49 -155 -18 -17 -21 -30 -21 -110 0 -129 -15 -215 -39 -240 -15 -14 -24 -17
-31 -10 -15 15 -39 156 -40 231 l0 62 -40 11 c-55 15 -63 38 -50 147 8 69 17
102 50 165 71 140 205 326 334 466 59 63 91 77 115 48z m-333 -126 c21 0 17
-21 -11 -55 l-24 -29 -21 21 -20 22 27 32 c15 17 29 27 31 20 2 -6 10 -11 18
-11z m632 -100 c4 -71 -13 -290 -29 -385 -15 -92 -57 -209 -91 -257 -53 -75
-140 -158 -166 -158 -40 0 -88 58 -101 121 -20 93 3 129 138 216 142 92 146
101 161 321 10 161 27 215 62 210 21 -3 23 -9 26 -68z m132 -192 c0 -39 -9
-52 -32 -54 -19 -2 -21 7 -12 55 5 21 12 31 25 31 15 0 19 -7 19 -32z m-937
-769 c12 -6 57 -48 100 -92 70 -74 77 -85 77 -122 0 -53 -18 -79 -142 -211
-121 -129 -161 -182 -214 -283 -52 -101 -129 -183 -210 -222 -80 -40 -110 -35
-219 31 -44 27 -92 51 -106 55 -42 11 -83 -17 -113 -77 -41 -82 -32 -131 34
-193 64 -61 92 -147 66 -209 -18 -44 -86 -79 -183 -95 -64 -10 -165 -1 -201
18 -17 9 -21 7 -26 -12 -13 -51 -4 -216 18 -327 l23 -115 16 55 c28 96 92 161
161 163 99 3 85 -111 -23 -187 -69 -49 -71 -57 -33 -126 36 -67 40 -90 15
-112 -29 -26 -59 -30 -98 -14 -31 13 -37 14 -42 1 -13 -35 -57 -2 -73 56 -6
19 -13 97 -16 174 -3 77 -12 181 -20 230 -28 166 -35 250 -29 314 7 67 33 154
58 193 32 48 87 198 87 234 0 42 27 72 209 225 l94 79 104 0 c161 0 208 29
291 179 26 46 67 107 92 135 25 28 63 78 85 110 64 96 128 156 165 156 17 0
41 -5 53 -11z m-1081 -2416 c45 -52 64 -147 34 -172 -12 -10 -19 4 -45 81 -17
51 -31 96 -31 101 0 13 27 7 42 -10z m121 -390 c8 -10 16 -25 18 -33 6 -32
-13 -109 -31 -125 -19 -17 -20 -17 -28 6 -5 13 -12 57 -16 97 -7 71 -7 72 17
72 13 0 31 -8 40 -17z m139 -421 c-2 -35 -36 -139 -59 -184 -16 -34 -46 -36
-67 -6 -20 28 -20 41 0 108 19 65 72 123 106 118 19 -2 23 -8 20 -36z"/>
</g>
</svg>
