<?xml version="1.0" encoding="utf-8"?>
<!-- Generator: Adobe Illustrator 25.0.0, SVG Export Plug-In . SVG Version: 6.00 Build 0)  -->
<svg version="1.1" id="Layer_1" xmlns="http://www.w3.org/2000/svg" xmlns:xlink="http://www.w3.org/1999/xlink" x="0px" y="0px"
	 viewBox="0 0 864 864" style="enable-background:new 0 0 864 864;" xml:space="preserve">
<style type="text/css">
	.st0{fill:none;}
	.st1{fill:#010101;}
</style>
<g>
	<path d="M217.08,424.08c0.32-0.02,0.92-0.03,1.52-0.09c4.76-0.51,8.55-5.14,8.08-9.87c-0.33-3.31-3.55-5.13-8.69-4.85
		c-1.09,0.06-2.2,0.21-3.23,0.53c-4.52,1.41-6.58,4.96-5.75,9.74C209.5,422.42,212.38,424.1,217.08,424.08z"/>
	<path d="M563.75,424.08c0.32-0.02,0.92-0.03,1.52-0.09c4.76-0.51,8.55-5.14,8.08-9.87c-0.33-3.31-3.55-5.13-8.69-4.85
		c-1.09,0.06-2.2,0.21-3.23,0.53c-4.52,1.41-6.58,4.96-5.75,9.74C556.17,422.42,559.05,424.1,563.75,424.08z"/>
	<path d="M804.84,437.81c-1.52-0.84-3.17-0.38-4.4,0.86c-0.62,0.62-1.05,1.45-1.46,2.24c-11.71,22.52-24.2,44.59-38.52,65.57
		c-3.79,5.55-8.03,10.74-13.68,14.55c-4.61,3.12-7.11,2.58-10.11-2.14c-1.72-2.71-3.08-5.6-3.91-8.71
		c-3.37-12.55-3.81-25.38-3.74-38.26c0.01-1.69,0.92-2.15,2.27-2.59c17.03-5.6,27.27-17.54,31.62-34.63
		c1.75-6.89,1.85-13.93-1.89-20.35c-4.71-8.09-13.77-11.54-24.87-9.76c-12.38,1.99-20.32,9.87-25.91,20.31
		c-4.84,9.07-7.64,18.66-8.91,28.91c-7.57,6.88-15.49,13.33-24.54,18.33c-9,4.98-18.53,7.93-28.92,7.65
		c-1.87-0.05-3.18-0.4-2.85-2.69c1.19-8.17,2.4-16.35,3.52-24.53c0.18-1.32,0.91-1.9,1.94-2.39c8.03-3.89,14.8-9.48,21.04-15.74
		c12.8-12.86,19.81-28.27,20.32-46.51c0-0.6,0-1.2,0-1.8h0c-0.02-11.71-5.84-17.69-17.55-18.06c-13.97-0.44-24.2,6.43-32.53,16.82
		c-7.53,9.38-11.49,20.53-14.94,31.84c-3.88,12.71-6.79,25.61-8.78,38.65c-9.78,19.33-19.99,38.43-30.81,57.2
		c-3.94,6.84-8.62,13.22-14.97,18.17c-1.84,1.44-2.95,1.29-4.3-0.69c-3.41-4.99-4.58-10.63-4.72-16.44
		c-0.16-6.37-0.15-12.75,0.41-19.14c0.57-6.45,1.23-12.87,2.26-19.25c1.53-9.47,3.98-18.71,6.43-27.97c0.63-2.38,1.33-5.01-0.91-7
		c-3.91-3.49-15.2-3.16-18.3,1.9c-3.28,5.37-5.54,11.1-7.03,17.11c-1.11,4.48-2,8.97-2.66,13.49c-0.34,0.96-0.67,1.92-1.01,2.88
		c-6.96,19.68-14.28,39.19-24.49,57.31c-3.52,6.25-7.78,11.89-13.53,16.03c-3.47,2.5-5.21,2.06-7.67-1.53
		c-2.25-3.29-3.45-7.07-4.43-10.96c-2.49-9.92-3.21-20.13-3.56-30.25c-0.6-16.74-0.63-33.53,1.06-50.24c0.13-1.3,0.82-1.97,1.71-2.6
		c17.02-11.99,28.95-28.51,37.75-47.75c6.08-13.3,10.33-27.15,10.38-42.13c0-1.67,0.1-3.34-0.02-5c-0.58-8.25-3.18-15.3-11.04-18.6
		c-6.56-2.76-13.19-2.32-19.61,0.75c-7.04,3.37-12.09,9.13-16.3,15.78c-7.73,12.21-12.89,25.72-17.01,39.62
		c-6.36,21.44-10.34,43.25-11.38,65.55c-8.67,24.14-17.59,48.18-28.09,71.61c-3.24,7.23-6.95,14.19-12.52,19.95
		c-4.36,4.5-5.71,4.19-7.09-1.91c-2.22-9.76-2.53-19.62-1.95-29.66c0.74-12.94,2.19-25.78,3.68-38.64
		c1.84-15.85,4.39-31.57,7.35-47.23c0.6-3.17,1.97-5.47,4.64-7.57c16.97-13.36,30.69-29.45,39.74-49.21
		c2.76-6.03,3.94-12.35,3.27-19.18c-0.67-6.87-6.63-12.03-14.41-12.8c-12.2-1.21-21.44,4.44-29.42,12.77
		c-9.35,9.77-15.42,21.57-20.48,33.95c-4.62,11.32-7.77,23.09-10.3,35.03c-0.52,2.45-1.26,2.94-3.71,2.11
		c-8.72-2.98-17.37-2.39-25.68,1.55c-10.69,5.06-18.22,13.56-24.39,23.33c-7.97,12.62-12.51,26.42-13.97,41.32
		c-0.76,7.7-0.7,15.25,0.71,22.66c-2.15,4.49-4.43,8.92-6.88,13.27c-3.52,6.25-7.78,11.89-13.53,16.03
		c-3.47,2.5-5.21,2.06-7.67-1.53c-2.25-3.29-3.45-7.07-4.43-10.96c-2.49-9.92-3.21-20.13-3.56-30.25
		c-0.6-16.74-0.63-33.53,1.06-50.24c0.13-1.3,0.82-1.97,1.7-2.6c17.02-11.99,28.95-28.51,37.75-47.75
		c6.08-13.3,10.33-27.15,10.38-42.13c0-1.67,0.1-3.34-0.02-5c-0.58-8.25-3.18-15.3-11.04-18.6c-6.56-2.76-13.19-2.32-19.61,0.75
		c-7.04,3.37-12.09,9.13-16.3,15.78c-7.73,12.21-12.89,25.72-17.01,39.62c-5.74,19.35-9.55,39.01-11,59.05
		c-9.82,19.41-20.07,38.6-30.93,57.46c-3.94,6.84-8.62,13.22-14.97,18.17c-1.84,1.44-2.95,1.29-4.3-0.69
		c-3.41-4.99-4.58-10.63-4.72-16.44c-0.16-6.37-0.15-12.75,0.41-19.14c0.57-6.45,1.23-12.87,2.26-19.25
		c1.53-9.47,3.98-18.71,6.43-27.97c0.63-2.38,1.33-5.01-0.91-7c-3.09-2.75-10.78-3.12-15.4-0.66c-0.59,0.13-1.17,0.36-1.72,0.69
		c-0.99,0.59-1.78,1.6-2.52,2.52c-2.8,3.51-5.56,7.07-8.32,10.61c-5.13,6.59-11.05,12.37-17.71,17.38
		c-3.05,2.3-6.31,4.22-10.01,5.32c-1.67,0.5-2.48,0.1-2.3-1.78c0.25-2.7-0.44-5.35-0.55-8.03c-0.24-5.81-1.26-11.49-3.14-16.95
		c-1.94-5.65-5.19-10.4-10.84-12.96c-6.89-3.12-14.7-0.52-17.09,5.67c-1.04,2.7-1.76,5.56-1.66,8.45
		c0.51,13.78,6.87,23.94,19.29,30.02c2.29,1.12,3.2,2.35,2.88,4.75c-0.71,5.31-0.98,10.66-1.74,15.98
		c-2.19,15.38-6.15,30.22-12.89,44.24c-2.43,5.05-5.46,9.75-9.62,13.64c-1.8,1.69-2.97,1.39-4.18-0.66
		c-2.11-3.58-3.4-7.45-4.26-11.46c-3.2-14.83-2.46-29.96-2.78-44.96c-0.12-5.72,0.12-11.56,0.37-17.34c0.05-1-0.01-2,0.06-3
		c0.72-10.53,1.51-21.05,1.77-31.6c0.06-2.49-1.12-3.98-3.21-4.88c-2.59-1.11-5.29-1.78-8.16-1.58c-3.57,0.25-5.93,2.12-6.95,5.55
		c-0.6,2-1.11,4.04-1.86,5.99c-6.23,16.31-13.34,32.26-20.39,48.24c-3.23,7.31-6.98,14.37-11.9,20.74c-0.65,0.83-1.19,2.24-2.35,2
		c-1.13-0.22-1.2-1.74-1.5-2.74c-1.42-4.69-2.22-9.54-2.45-14.39c-0.6-12.38,0.21-24.75,1.25-37.07c0.88-10.5,2.52-20.94,4.53-31.3
		c1.22-6.32-1.05-9.57-7.45-10.44c-10.34-1.39-15.2,1.61-18.08,10.81c-2.94,9.38-4.62,18.93-5.31,28.73
		c-0.95,13.49-1.15,26.9,2.52,40.09c2.31,8.29,5.71,16,12.14,22.02c7.75,7.25,18.84,6.81,25.88-1.06
		c5.29-5.92,8.03-13.29,11.39-20.3c2.3-4.81,4.38-9.73,6.89-15.34c0.32,7.5,0.03,14.15,0.56,20.81c0.56,7.06,1.16,14.09,2.63,21
		c2.03,9.52,5.51,18.34,12.85,25.2c8.48,7.91,21.1,7.92,28.88-0.13c2.5-2.59,4.61-5.52,6.36-8.68c5.41-9.74,9.14-20.14,12.12-30.83
		c3.45-12.4,5.36-25.05,5.98-37.89c0.07-1.48,0.53-2.11,2.05-2.28c7.95-0.9,14.6-4.64,20.54-9.77c3.21-2.77,6.21-5.72,9.03-8.82
		c-2.47,11.52-3.49,23.18-2.69,35.06c0.63,9.39,2.13,18.49,6.99,26.63c4.33,7.24,9.89,13.16,21.19,13.36
		c2.96,0.21,7.08-1.68,10.78-4.63c7.34-5.86,12.24-13.58,16.72-21.68c7.1-12.83,13.27-26.12,19.5-39.37c0,2.54,0.03,5.09,0.1,7.64
		c0.38,12.25,1.42,24.33,3.97,36.25c2.24,10.45,5.45,20.53,11.54,29.32c9.72,14.02,25.62,15.4,37.3,3.19
		c4.84-5.06,8.25-11.22,11.43-17.49c0.06-0.11,0.11-0.23,0.17-0.34c5.55,11.68,18.6,14.22,28.5,5.18
		c5.46-4.98,9.51-11.01,13.16-17.37c5.82-10.14,10.65-20.78,15.65-31.4c-0.15,14.63,0.65,29.15,3.25,43.51
		c1.37,7.56,2.97,15.09,6.87,21.88c3.66,6.37,8.89,9.74,16.49,9.21c7.56-0.53,12.3-5.25,16.56-10.7c5.39-6.91,8.91-14.89,12.5-22.79
		c6.14-13.48,11.3-27.31,16.11-41.27c0.54,9.8,1.6,19.49,3.66,29.07c2.24,10.45,5.45,20.53,11.54,29.32
		c9.72,14.02,25.62,15.4,37.3,3.19c4.84-5.06,8.25-11.22,11.43-17.49c5.34-10.53,9.93-21.37,14.05-32.4
		c0.67,9.1,2.21,17.91,6.93,25.81c4.33,7.24,9.89,13.16,21.19,13.36c2.96,0.21,7.08-1.68,10.78-4.63
		c7.34-5.86,12.24-13.58,16.72-21.68c6.35-11.46,11.94-23.29,17.5-35.14c-0.3,3.98-0.53,7.96-0.67,11.96
		c-0.74,20.72-0.91,41.52,2.83,62.1c2.36,13.02,5.53,25.77,11.96,37.48c2.95,5.37,6.27,10.49,11.33,14.16
		c9.72,7.02,21.31,3.85,25.99-7.04c2.6-6.05,3.62-12.42,3.81-18.91c0.15-5.07-0.05-10.15-0.42-15.24c-0.6-8.26-1.76-16.4-3.46-24.48
		c-3.49-16.61-9.39-32.36-17.34-47.34c-1.35-2.55-0.87-3.14,1.83-3.23c16.44-0.58,30.74-6.76,43.19-17.24
		c2.03-1.71,4.02-3.45,5.98-5.23c-0.05,1.6-0.07,3.22-0.05,4.86c-0.22,5.87,0.56,12.71,1.87,19.47
		c2.46,12.73,7.58,24.16,17.04,33.34c11.61,11.26,28.35,11.55,40.31,0.72c4.1-3.72,7.49-8.03,10.53-12.63
		c12.67-19.15,21.78-40.18,31.89-60.67c1.24-2.51,2.38-5.07,3.39-7.67C806.06,440.45,806.48,438.72,804.84,437.81z M729.67,459.17
		c1.67-13.5,3.62-26.94,11.07-38.79c0.57-0.9,0.97-2.32,2.18-2.24c1.18,0.08,1.5,1.49,1.96,2.46c1.51,3.19,2.34,6.56,2.51,10.69
		c-1.46,11.16-5.98,21.28-15.51,28.74c-0.52,0.41-1.06,1.11-1.82,0.76C729.42,460.5,729.6,459.72,729.67,459.17z M670.92,383.43
		c1.45-1.69,2.05-1.29,2.58,0.66c2.1,7.74,1.39,15.41-0.68,22.98c-3.63,13.32-11,24.18-21.95,32.6c2.9-16.62,6.59-33.01,14.41-48.15
		C666.81,388.59,668.77,385.94,670.92,383.43z M496.76,411.08c3.85-17.55,8.21-34.93,16.19-51.01c1.52-3.06,3.3-5.92,5.45-8.54
		c1.52-1.86,2.7-2.03,3.59,0.46c2.01,5.54,2.71,11.24,2.31,17.19c-1.32,19.63-9.03,36.77-18.31,53.29
		c-3.74,6.67-8.33,12.69-13.96,17.85C492.95,430.34,494.65,420.67,496.76,411.08z M438.35,391.37c3.95-10.39,8.4-20.52,15.31-29.36
		c0.6-0.76,1.13-2.1,2.15-1.8c1.1,0.32,1.04,1.79,1.22,2.83c0.97,6-0.5,11.68-2.79,17.11c-5.56,13.18-13.54,24.86-22.66,35.8
		c-0.24,0.28-0.46,0.66-1.19,0.4C432.77,407.95,435.23,399.56,438.35,391.37z M303.58,411.08c3.85-17.55,8.21-34.93,16.19-51.01
		c1.52-3.06,3.3-5.92,5.45-8.54c1.52-1.86,2.7-2.03,3.59,0.46c2.01,5.54,2.71,11.24,2.31,17.19c-1.32,19.63-9.03,36.77-18.31,53.29
		c-3.74,6.67-8.33,12.69-13.96,17.85C299.77,430.34,301.48,420.67,303.58,411.08z M147.73,444.1c5.73,7.94,6.32,16.99,7.12,25.96
		C148.78,464.66,143.84,451.49,147.73,444.1z M395.36,449.1c-0.41,6.33-2.69,11.94-5.3,17.58c-7.56,16.31-15.01,32.66-24.4,48.04
		c-3.13,5.12-6.34,10.17-10.45,14.59c-0.45,0.48-0.71,1.39-1.56,1.05c-0.57-0.23-0.58-0.98-0.67-1.58
		c-0.61-3.73-1.16-7.47-1.23-11.52c0.82-14.39,3.78-28.57,9.18-42.22c3.7-9.35,8.59-18.02,15.01-25.79c2.43-2.94,5.2-5.51,8.31-7.75
		c1.77-1.27,3.44-1.45,5.26-0.31c1.1,0.69,2.16,1.43,3.25,2.13C394.86,444.7,395.53,446.46,395.36,449.1z M654.9,537.27
		c3.25,12.92,4.56,26.03,4.21,39.35c-0.16,6.38-1.64,12.4-4.28,18.17c-0.36,0.78-0.64,1.87-1.75,1.77
		c-0.88-0.08-1.11-1.04-1.47-1.74c-3.38-6.79-4.82-14.13-5.95-21.52c-1.88-12.3-2.55-24.71-3.29-37.14
		c-0.61-10.22,0.9-20.31,0.45-30.55C648.85,515.43,652.13,526.25,654.9,537.27z"/>
</g>
<g>
	<g>
		<path d="M115.98,256.4v2.27l-12.86,1.26v-3.28c0-5.04-2.39-7.69-6.8-7.69s-6.81,2.65-6.81,7.69v1.14c0,5.17,2.27,9.58,11.22,17.14
			c12.23,10.33,16.76,17.64,16.76,28.23v4.41c0,12.6-7.44,19.79-20.67,19.79s-20.67-7.18-20.67-19.79v-5.92l12.86-1.26v6.3
			c0,5.54,2.52,8.32,7.56,8.32s7.56-2.77,7.56-8.32v-2.9c0-5.55-2.65-9.96-11.6-17.52c-12.23-10.33-16.38-17.64-16.38-27.98v-1.89
			c0-12.6,7.18-19.79,19.91-19.79S115.98,243.79,115.98,256.4z"/>
		<path d="M166.39,306.31c0,13.86-7.94,21.05-20.8,21.05c-12.6,0-20.54-7.18-20.54-21.05v-68.44h12.86v68.06
			c0,6.43,2.9,8.82,7.56,8.82c4.66,0,7.56-2.4,7.56-8.82v-68.06h13.36V306.31z"/>
		<path d="M221.47,260.18v7.06c0,14.49-7.81,22.31-22.18,22.31h-5.92v36.55h-13.36v-88.22h19.28
			C213.66,237.87,221.47,245.69,221.47,260.18z M193.37,250.22v26.97h5.42c6.43,0,9.33-3.4,9.33-10.84v-5.29
			c0-7.43-2.9-10.84-9.33-10.84H193.37z"/>
		<path d="M272.77,260.18v7.06c0,14.49-7.81,22.31-22.18,22.31h-5.92v36.55h-13.36v-88.22h19.28
			C264.96,237.87,272.77,245.69,272.77,260.18z M244.67,250.22v26.97h5.42c6.43,0,9.33-3.4,9.33-10.84v-5.29
			c0-7.43-2.9-10.84-9.33-10.84H244.67z"/>
		<path d="M324.95,258.92v46.13c0,13.86-8.19,22.31-21.55,22.31c-13.36,0-21.55-8.44-21.55-22.31v-46.13
			c0-13.86,8.19-22.31,21.55-22.31C316.76,236.61,324.95,245.05,324.95,258.92z M295.21,259.05v45.88c0,6.55,2.9,10.08,8.19,10.08
			c5.29,0,8.19-3.53,8.19-10.08v-45.88c0-6.55-2.9-10.08-8.19-10.08C298.1,248.96,295.21,252.49,295.21,259.05z"/>
		<path d="M368.05,326.1l-10.59-37.31h-6.18v37.31h-13.36v-88.22h19.28c14.37,0,22.18,7.81,22.18,22.31v6.3
			c0,9.33-3.28,15.88-9.45,19.41l12.23,40.2H368.05z M351.29,250.22v26.21h5.42c6.43,0,9.33-3.4,9.33-10.84v-4.54
			c0-7.43-2.9-10.84-9.33-10.84H351.29z"/>
		<path d="M426.91,250.48h-14.24v75.62h-13.36v-75.62h-14.24v-12.6h41.84V250.48z"/>
	</g>
</g>
<g>
	<path d="M190.61,669.98l-10.59-37.3h-6.18v37.3h-13.36v-88.22h19.28c14.37,0,22.18,7.81,22.18,22.31v6.3
		c0,9.33-3.28,15.88-9.45,19.41l12.23,40.2H190.61z M173.85,594.11v26.21h5.42c6.43,0,9.33-3.4,9.33-10.84v-4.54
		c0-7.43-2.9-10.84-9.33-10.84H173.85z"/>
	<path d="M257.16,669.98h-13.61l-2.9-20.04H225.9l-2.9,20.04h-13.36l15.25-88.22h17.02L257.16,669.98z M233.08,600.66l-5.42,37.18
		h11.22l-5.42-37.18H233.08z"/>
	<path d="M280.1,669.98h-13.36v-88.22h13.36V669.98z"/>
	<path d="M330.01,600.28v2.27l-12.86,1.26v-3.28c0-5.04-2.39-7.69-6.8-7.69s-6.81,2.65-6.81,7.69v1.14c0,5.17,2.27,9.58,11.22,17.14
		c12.23,10.33,16.76,17.64,16.76,28.23v4.41c0,12.6-7.44,19.79-20.67,19.79s-20.67-7.18-20.67-19.79v-5.92l12.86-1.26v6.3
		c0,5.55,2.52,8.32,7.56,8.32s7.56-2.77,7.56-8.32v-2.9c0-5.55-2.65-9.96-11.6-17.52c-12.23-10.33-16.38-17.64-16.38-27.98v-1.89
		c0-12.6,7.18-19.79,19.91-19.79C322.82,580.49,330.01,587.68,330.01,600.28z"/>
	<path d="M377.14,594.11h-24.2v24.95h19.54v12.35h-19.54v26.22h24.2v12.35h-37.56v-88.22h37.56V594.11z"/>
	<path d="M452.38,604.06v1.64c0,9.83-2.9,15.63-9.96,18.02v0.25c8.32,2.52,11.85,9.07,11.85,20.67v3.02
		c0,14.49-7.81,22.31-22.18,22.31h-19.66v-88.22h18.65C444.95,581.75,452.38,589.57,452.38,604.06z M425.79,594.11v24.07h4.16
		c6.43,0,9.07-3.28,9.07-10.71v-2.9c0-7.19-2.65-10.46-8.44-10.46H425.79z M425.79,630.53v27.1h5.8c6.43,0,9.33-3.4,9.33-10.84
		v-4.92c0-7.81-2.9-11.34-9.96-11.34H425.79z"/>
	<path d="M506.83,602.8v46.13c0,13.86-8.19,22.31-21.55,22.31c-13.36,0-21.55-8.44-21.55-22.31V602.8
		c0-13.86,8.19-22.31,21.55-22.31C498.64,580.49,506.83,588.94,506.83,602.8z M477.09,602.93v45.88c0,6.55,2.9,10.08,8.19,10.08
		c5.29,0,8.19-3.53,8.19-10.08v-45.88c0-6.55-2.9-10.08-8.19-10.08C479.99,592.85,477.09,596.37,477.09,602.93z"/>
	<path d="M541.75,630.15v39.83h-13.36v-39.95l-18.53-48.27h14.12l11.22,31.26h0.25l10.71-31.26h13.86L541.75,630.15z"/>
	<path d="M601.36,600.28v2.27l-12.86,1.26v-3.28c0-5.04-2.39-7.69-6.8-7.69s-6.81,2.65-6.81,7.69v1.14c0,5.17,2.27,9.58,11.22,17.14
		c12.23,10.33,16.76,17.64,16.76,28.23v4.41c0,12.6-7.44,19.79-20.67,19.79s-20.67-7.18-20.67-19.79v-5.92l12.86-1.26v6.3
		c0,5.55,2.52,8.32,7.56,8.32s7.56-2.77,7.56-8.32v-2.9c0-5.55-2.65-9.96-11.6-17.52c-12.23-10.33-16.38-17.64-16.38-27.98v-1.89
		c0-12.6,7.18-19.79,19.91-19.79S601.36,587.68,601.36,600.28z"/>
</g>
<g>
	<path class="st0" d="M638.46,303.43c-2.64-3.61-6.32-6.2-9.57-9.19c0.06,0.26,0.11,0.52,0.17,0.78c-0.01-0.03-0.01-0.06-0.02-0.09
		c0.05,0.2,0.09,0.41,0.14,0.61c-0.01-0.03-0.01-0.06-0.02-0.09c1.51,5.33,1.39,10.94,2.39,16.36c0.79-0.58,1.21-1.53,2.12-1.97
		c0,0-0.01,0-0.01,0C635.45,307.99,641.12,306.75,638.46,303.43C638.46,303.43,638.46,303.43,638.46,303.43z"/>
	<path class="st1" d="M558.59,316.65c0.03,0.01,0.05,0.02,0.07,0.02C558.64,316.66,558.61,316.66,558.59,316.65z"/>
	<path class="st1" d="M653.36,312.25c-0.01,0.01-0.01,0.01-0.01,0.02C653.35,312.26,653.35,312.26,653.36,312.25z"/>
	<path class="st1" d="M720.25,189.36C720.26,189.36,720.26,189.36,720.25,189.36C720.26,189.36,720.25,189.36,720.25,189.36
		c-0.01-0.02-0.02-0.04-0.04-0.06l0,0c-2.27-3.18-4.99-6.21-5.63-10.2c0,0,0,0,0,0.01c-0.39-2.31-0.35-4.85-2.13-6.63
		c0.02,0.02,0.04,0.05,0.06,0.07c-0.93-1.5-1.86-3.02-3.1-4.29c-0.35-4.18-1.17-8.81-3.23-12.21c-0.01-2.04-1.14-19.28-3.36-10.83
		c-0.62-0.83-1.74-0.17-2.19,0.51c-0.12-0.12-0.22-0.23-0.32-0.35c0.02,0.02,0.04,0.05,0.06,0.07c-0.84-1.42-2.22-1.89-3.57-2.56
		c-1.67-1.16-11.71-8.62-10.93-4.73c-2.35-1.19-5.21-1.6-7.79-1.29c-1.25-0.11-3.32-1.14-4.14,0.15c-1.31-0.18-4.05-1.31-4.49,0.51
		c-1.27-0.11-3.61-1.53-4.33,0.04c-1.26,0.03-3.42-1.15-4.11,0.31c-1.15-0.07-3.12-1.01-3.75,0.35c-1.01,0.06-2.39-0.52-3.17,0.31
		c-1.31,0.26-3.3-0.71-4.18,0.47c-1.21,0.39-3.2-0.43-3.92,0.78c-0.88-0.16-2.17-0.29-2.42,0.83c-0.01,0-0.03-0.01-0.04-0.01
		c0.01,0,0.02,0.01,0.03,0.01c-0.02-0.01-0.04-0.01-0.05-0.02c0,0,0,0,0.01,0c-1.49-0.58-4.36-2.5-4.53,0.32
		c-1.33,0.09-4.45-0.96-4.44,1.13c-1.71,0.54-5.86-0.42-5.89,1.94c-0.79,0.25-1.61,0.39-2.43,0.55c0.03,0,0.06-0.01,0.09-0.01
		c-1.11,0.41-3.83,0-3.63,1.68c-2.86,0.92-6.98,0.41-9.11,2.47c-2.02,0.92-6.06-0.3-6.98,1.77c-1.38,0.51-6.22,0.25-4.66,2.63
		c-1.34,0.5-6.34,0.88-4.41,3.03c-1.48,0.96-6.46,1.49-4.95,3.79c-1.56,1.28-5.32,1.45-5.55,3.62c-1.38,1.28-5.4,1.29-5.19,3.51
		c-1.26,0.81-5.91,0.5-4.61,2.66c-0.61,0.35-1.24,0.66-1.88,0.97c0.01,0,0.02-0.01,0.04-0.01c-1.28,0.75-3.03,0.98-3.99,2.11
		c-1.63,0.58-4.78,0.25-5.25,2.27c-0.8,0.01-1.59-0.01-2.39-0.05c0,0,0,0,0,0c-8.22-1.24-16.19,1.85-24.37,1.37
		c-40.23-3.05-64.15-12.15-72.13,37.4c0-0.01,0-0.02,0-0.04c-0.02,0.24-0.02,0.49-0.04,0.73c0-0.03,0-0.07,0-0.11
		c0,0.04-0.01,0.08-0.01,0.12c0,0,0-0.01,0-0.01c-2.06,20.4-4.72,40.89-12.21,60.12c0,0,0-0.01,0-0.01
		c-3.26,5.29-3.79,11.41-1.56,17.19c0,0,0-0.01,0-0.01c0,0.03,0.02,0.07,0.02,0.1c0,0,0,0,0,0c3.47,10.91,1.08,38.18,18.62,33.71
		c14.86,3.22,18.8-5.68,3.6-10.8c-0.41-0.13-0.79-0.32-1.16-0.55c-3.23-4.21-3.33-10.34-4.11-15.48v0
		c-0.01-0.16-0.03-0.32-0.04-0.48v0c0,0,0-0.01,0-0.01c0-0.03,0-0.06,0-0.1c0,0,0,0.01,0,0.01c-1.75-10.1,5-18.05,9.87-26.17
		c0,0,0,0,0,0.01c1.24-1.86,2.34-3.81,3.52-5.71c0,0,0,0,0,0c0.1-0.16,0.21-0.32,0.31-0.47c-0.02,0.03-0.04,0.06-0.06,0.1
		c1.15-1.77,2.3-3.54,3.43-5.33c0,0,0,0-0.01,0.01c0.1-0.16,0.2-0.31,0.3-0.46c0,0.01-0.01,0.01-0.01,0.02
		c0.02-0.03,0.04-0.06,0.06-0.08c0,0,0,0,0,0c0.01-0.02,0.02-0.04,0.03-0.05c0,0,0,0,0,0c0,0,0.01-0.01,0.01-0.02c0,0,0,0,0,0.01
		c0.01-0.01,0.01-0.01,0.01-0.02c0,0,0,0,0,0c0,0,0-0.01,0.01-0.01c0,0,0,0,0,0c3.29-4.63,6.25-9.59,10.46-13.47
		c-0.03,0.03-0.06,0.06-0.09,0.08c0.17-0.15,0.34-0.31,0.5-0.46c0,0-0.01,0-0.01,0c0.08-0.08,0.17-0.16,0.26-0.24
		c1.33,2.24,2.96,4.28,4.27,6.54c-0.01-0.02-0.02-0.04-0.03-0.06c5.56,8.65,11.46,17.15,14.11,27.26c1.9,7.47,1.04,15.79,6.46,21.95
		c3.84,5.85,9.69,10.07,13.22,16.18c2.96,5.76,8.34,9.1,14.87,8.4c3.5,0.31,8.32,1.29,10.84-1.78c3.06-7.24-5.06-7.77-9.79-9.29h0
		c-0.03-0.01-0.05-0.03-0.08-0.04c0,0,0,0,0,0c-0.28-0.17-0.58-0.34-0.84-0.54c0,0,0,0,0.01,0.01c-0.71-0.52-1.42-1.08-1.94-1.8
		c0.02,0.03,0.04,0.06,0.07,0.09c-0.07-0.09-0.14-0.18-0.21-0.26c0.02,0.03,0.05,0.06,0.07,0.08c-1.68-2.16-3.31-4.35-4.71-6.71
		c0.01,0.01,0.01,0.01,0.02,0.02c-3.38-5.61-6.45-11.38-7.3-17.98c0,0.01,0,0.03,0.01,0.04c-0.01-0.1-0.03-0.19-0.04-0.3v0
		c-0.43-9.48-1.13-18.94-2.03-28.4c1.73,0.45,3.51,0.58,5.25,0.99c-0.03-0.01-0.06-0.02-0.09-0.03c11.42,3.91,23.68,0.39,34.96,5.01
		c-0.02,0-0.03-0.01-0.05-0.01c7.99,2.93,16.36,3.76,24.78,2.53c0.04,0.13,0.08,0.25,0.13,0.38c-0.01-0.03-0.02-0.06-0.04-0.1
		c0.02,0.07,0.05,0.14,0.07,0.21c-0.01-0.03-0.02-0.06-0.04-0.1c2.83,10.53,3.12,21.54,6.2,32.07c0,0,0-0.01,0-0.01
		c0,0.03,0.01,0.07,0.02,0.09c0,0,0,0,0,0c0.81,4.58,1.51,9.19,2.57,13.71c0-0.01,0-0.02,0-0.03c0.43,3.36,1.64,6.52,3.28,9.47
		c0-0.01-0.01-0.02-0.01-0.03c1.06,2.4,1.99,4.88,2.54,7.45c0,0,0-0.01,0-0.01c0,0.02,0.01,0.06,0.02,0.09c0,0,0,0,0,0
		c0.81,5.93,0.11,8.33,7.25,7.87c0,0,0,0,0,0c2.08,0.26,4.19,0.49,6.28,0.23c-0.02,0-0.04,0-0.06,0c1.67,0.08,3.31-0.19,4.97-0.18
		c0,0,0,0-0.01,0c1.47,0.41,2.94,0.74,4.39,0c-0.01,0-0.02,0.01-0.03,0.01c0.95-0.29,1.99-0.18,2.86-0.72
		c-0.03,0.01-0.06,0.03-0.09,0.04c0.37-0.19,0.77-0.3,1.16-0.38l0,0c0,0,0.01,0,0.01,0c0,0,0.01,0,0.02,0l0,0
		c11.63-1.7,0.28-10.73-5.29-12.29c2.32-1.09,4.25-2.81,6.18-4.45h0c0.03-0.02,0.06-0.05,0.08-0.07c0,0-0.01,0.01-0.01,0.02
		c1.55-1.27,3.1-2.52,4.53-3.92c0,0,0,0,0,0s0,0,0,0c0.03-0.02,0.05-0.04,0.08-0.07c0,0-0.01,0.01-0.01,0.01
		c0.71-0.63,1.45-1.24,2.16-1.87c-0.01,0.01-0.02,0.02-0.03,0.03c3.32-2.3,6.08-5.64,7.02-9.64c0,0,0,0,0,0
		c0.62-2.86,0.44-5.76-0.31-8.57c0,0,0,0.01,0,0.01c-0.01-0.03-0.01-0.06-0.01-0.08v0c-0.89-4.48-1.57-8.99-3.29-13.25c0,0,0,0,0,0
		c-0.07-0.22-0.15-0.45-0.22-0.67c0.01,0.03,0.02,0.06,0.03,0.08c-0.12-0.38-0.24-0.76-0.35-1.14c1.03-0.81,1.23-2.35,1.67-3.53
		c2.29,0.33,2.46-3.59,3.38-5.13c1.91,1.05,2.14-2.51,2.89-3.64c2.5,0.78,2.4-3.96,3.41-5.52c1.88,0.24,1.74-2.77,2.38-4.02
		c1.25-0.18,1.4-1.91,1.61-2.93c3.04-1.03,4.05-6.3,5.36-9.2c0,0.01-0.01,0.03-0.01,0.04c0-0.02,0.01-0.03,0.02-0.05c0,0,0,0,0,0
		c0.19-0.54,0.36-1.09,0.56-1.62c2.34-0.1,2.27-4.17,3.62-5.72c1.86,0.38,1.58-2.23,2.24-3.3c1.53,0,1.5-1.34,1.37-2.49
		c0,0.03,0,0.06-0.01,0.09c0-0.09,0.01-0.17,0.02-0.25c0.9,0.47,2.23,0.19,2.02-1.06c1.76,2.77,2.9-1.32,3.41-2.85
		c0,0.02-0.01,0.04-0.02,0.07c0.02-0.06,0.04-0.12,0.06-0.18c0.53-1.53,0.78-3.15,0.71-4.76c0.72,1.11,2.29,2.56,3.09,0.71
		c-0.01,0.02-0.03,0.05-0.05,0.07c0.07-0.11,0.15-0.22,0.23-0.32c1.23,0.75,1.97-0.52,2.22-1.58c2.06,0.55,1.35-2.54,0.99-3.66
		c3.02,6.72,4.99-3.87,4.25-6.64c5.28,2.12,13.87,8.29,18.44,2.35c0,0,0,0,0,0c0.52-0.78,0.79-1.67,1.25-2.48
		c-0.02,0.03-0.03,0.06-0.05,0.08c0.78-1.16,1.4-2.41,1.93-3.7c0,0,0,0,0,0c0.98-2.59,3.41-4.19,5.17-6.23c0,0-0.01,0.01-0.01,0.01
		C731.08,200.18,722.91,193.54,720.25,189.36z M633.65,309.84C633.65,309.84,633.66,309.84,633.65,309.84
		c-0.9,0.44-1.32,1.39-2.11,1.97c-1-5.42-0.88-11.03-2.39-16.36c0.01,0.03,0.01,0.06,0.02,0.09c-0.05-0.2-0.09-0.41-0.14-0.61
		c0.01,0.03,0.01,0.06,0.02,0.09c-0.06-0.26-0.11-0.52-0.17-0.78c3.25,2.99,6.93,5.58,9.57,9.19c0,0,0,0,0,0
		C641.12,306.75,635.45,307.99,633.65,309.84z"/>
	<path class="st1" d="M638.81,338.78c-0.01,0-0.03,0.01-0.04,0.01C638.78,338.79,638.79,338.79,638.81,338.78z"/>
	<path class="st1" d="M612.81,323.18c-0.01-0.03-0.03-0.06-0.04-0.09C612.79,323.12,612.8,323.15,612.81,323.18z"/>
	<path class="st1" d="M591.97,268.3c-0.04,0-0.08,0-0.12,0C591.89,268.3,591.93,268.3,591.97,268.3z"/>
</g>
</svg>
